
<svg xmlns="http://www.w3.org/2000/svg" version="1.1" xmlns:xlink="http://www.w3.org/1999/xlink" preserveAspectRatio="none" x="0px" y="0px" width="81px" height="87px" viewBox="0 0 81 87">
<defs>
<g id="Layer0_0_MEMBER_0_FILL">
<path fill="#000000" stroke="none" d="
M 164.15 122.5
Q 163.85 121.9 163 121.35 159.75 119.7 156.15 117.55 156.4 116.7 157.45 115.6 158.3 114.7 158.3 113.9 158.05 110.65 156.1 108.2 152.2 103.25 143.65 106.45 143.1 104.1 141.6 103.2 140.3 102.45 138.6 103 137 103.5 135.75 105 134.45 106.55 134.2 108.5 129.4 108.35 128.25 108.4 128 108.2 127.75 108 125.8 106.55 123.25 105.8 120.45 105 118.45 105.65 116.1 106.45 115.45 109.15 114.75 112.35 113 113.75 111.85 114.65 109.6 115.15 107.25 115.65 106.55 116.15 105.3 117.1 105.3 119.55 105.3 120.5 105.3 120.7 105.3 120.95 105.4 121.25 94.15 120.15 90.45 124.15 89.3 125.4 89 127 88.85 127.8 88.95 128.4 88.95 130.5 89.55 131.35 90.7 133.05 94.55 133.35 94.55 133.85 94.75 134.35 94.95 134.85 94.95 135.55 94.95 135.6 93.75 137.9 92.55 140.2 92.55 140.5 92.55 140.7 92.45 141.8 92.5 142.9 93.2 143.65 95.35 146 103.25 144.85 102.95 146.65 101.75 147.55 101.25 147.95 99.35 148.7 97.75 149.3 97.1 150.2 96.1 151.55 96.1 154.15 96.1 155.55 98.45 157.45 99.05 157.95 100.1 158.75 100.8 159.4 100.8 159.7 100.8 161.25 99.85 162.35 99.35 162.9 97.7 164.05 96.2 165.05 95.55 166 94.55 167.4 94.55 169.45 94.55 172.7 95.55 174.1 97.55 176.9 103.7 177.35 103.6 177.6 103.55 177.85 102.95 179.35 103 179.9 103.05 180.4 103.3 180.75 103.3 180.8 103.3 180.85 103.45 181.95 103.9 182.85 105.35 185.75 109.6 185.75 112.65 185.75 114.05 183.3 114.45 182.55 114.8 181.4 115.1 180.4 115.2 180.25 116.3 180.8 117.65 181.9 118.95 182.7 121.1 182.7 122.8 182.7 124.7 181.15 125.3 181.15 125.95 181.15 128.2 181.15 129.15 181.4 130.1 181.65 133.3 181.65 136 181.65 137.75 181.55 139.2 182.2 140.45 182.2 150.5 182.2 154.25 178.9 156.25 177.1 156.25 174.3 156.25 173.85 156.1 172.55 156 171.65 156.15 171.2 160.9 169.9 162 167.9 162.4 167.2 162.45 166.15 162.4 165 162.4 164.45 162.4 163.2 162.2 162.65 162.05 162 161.5 161.35 159.3 159.25 156.75 156.45 164.95 156 164.95 149.5 164.95 147.85 164.05 145.85 167.95 143.55 168.7 142.2 169.05 141.6 169.05 140.75 169 139.7 169 138.95 169 137 169 136.65 168.9 135.35 168.4 134.4 167.2 131.8 162.75 129.8 164.05 127.85 164.35 126.7 164.4 126.3 164.4 124.45 164.4 123.15 164.15 122.5
M 92.7 126.25
L 92.7 126.2
Q 92.55 126.1 92.7 126.05 92.75 126 92.85 126 92.75 126.1 92.7 126.25 Z"/>
</g>

<g id="Layer0_0_MEMBER_1_FILL">
<path fill="#CC9900" stroke="none" d="
M 138.05 175.35
Q 137.05 176.55 135.15 177.65 132.05 179.45 129.5 179.45 127.9 179.45 124.35 177.65 122.45 176.65 121.55 175.95
L 121.55 180.05 121.55 182.95
Q 122.05 185.55 124.9 187.3 127.6 188.95 130.75 188.95 131.8 188.95 133.65 188.15 135.3 187.45 135.7 187.05 137.65 185.25 138.05 182.6
L 138.05 175.35
M 149.7 145
L 149.65 145.4 149.55 146.6 149.55 146.75 149.5 147.1 149.5 147.15 149.45 147.7
Q 149.45703125 147.7 149.5 147.7 149.6 147.35 149.55 147.8 149.55 147.9 149.5 148.05 149.5 148.2 149.45 148.45 149.2 149.4 148.6 151.45
L 148.55 151.45
Q 148.45 151.8 148.3 152.1
L 148.2 152.35
Q 148.2 152.5 148.25 152.6 148.45 153.95 148.45 155.25 148.45 155.35 148.45 155.4 148.6 155.55 148.9 155.7 149.3 155.85 149.8 155.85 150.75 155.85 151.15 155.55 151.2 155.5 151.95 154.35 152.1 154.15 152.55 153.15 152.75 152.55 153 152.25 153.15 150.4 152.7 148.8 152 146.45 150.25 145.95 149.95 145.9 149.65 145.85 149.7 145.45 149.7 145
M 149.7 144.65
L 149.65 144.65 149.55 146.2 149.5 146.8 149.55 146.6 149.65 145.4 149.7 144.7 149.7 144.65
M 132.65 148.25
Q 133.55 145.1 137.35 143.8 141.25 142.55 145.7 143.45 147.2 143.7 148.15 144 146.7 140.5 143.8 137.6 142.35 136.15 140.8 135.1 135.85 131.7 129.55 131.7 129.15 131.7 128.75 131.75 122.25 131.95 117.25 135.9 116.25 136.7 115.35 137.6 112.25 140.65 110.8 144.4 112.25 143.2 114.35 142.95 117.6 142.55 121.45 143.8 125.3 145.1 126.15 148.25 126.9 151.1 127 153.6 125.3 151.35 124.45 150.85 123.65 150.4 120.1 150.15 116.6 149.9 113.25 152.2 111.5 153.45 110.75 154.6 110.8 153.5 110.95 152.45
L 110.85 152.2
Q 110.65 151.8 110.55 151.4 110.55 151.35 110.5 151.35 110.35 150.9 110.25 150.5 110.1 149.95 109.95 149.4 109.8 148.8 109.75 148.25 109.7046875 148.1142578125 109.7 147.95
L 109.7 147.9
Q 109.25 145.95 109.15 145.95 107.35 146.45 106.7 148.8 106.1 150.8 106.55 153.15 106.8 153.45 107.05 153.9 107.45 154.3 107.8 154.85 108.1 155.4 108.95 155.7 109.75 156 110.15 155.7 110.5 155.35 110.75 155.25 110.75 157.52578125 111.3 159.6 111.3873046875 159.84375 111.45 160.05 111.45 160.1 111.5 160.2 111.9 161.6 112.55 162.9 113.1 164 113.75 165 114.05 165.4 114.35 165.85 114.6 166.15 114.85 166.5 115.3 167.1 115.8 167.65 116.3 168.15 116.85 168.65 116.85 168.7 116.9 168.7 117.35 169.15 117.85 169.6 119.3 170.85 121.05 172.05 121.3 172.2 121.55 172.4 125 174.65 129.6 176.55 134.45 174.55 138.05 172.2 145.8 167 147.8 160.1 148.15 158.8 148.35 157.5 146.65 154.1 144.65 152.65 142.55 151.1 138.7 151.05 134.9 150.95 133.5 151.6 132.15 152.25 131.4 156 131.9 151.15 132.65 148.25
M 124.85 158
L 124.8 158.1 124.75 158.1
Q 124.8 158.05 124.85 158 Z"/>

<path fill="#A07001" stroke="none" d="
M 135.15 177.65
Q 137.05 176.55 138.05 175.35
L 138.05 172.2
Q 134.45 174.55 129.6 176.55 125 174.65 121.55 172.4
L 121.55 175.5 121.55 175.95
Q 122.45 176.65 124.35 177.65 127.9 179.45 129.5 179.45 132.05 179.45 135.15 177.65
M 111.3 159.6
Q 111.1 159.8 111.05 159.95 111.25 160 111.45 160.05 111.3873046875 159.84375 111.3 159.6
M 106.55 153.15
Q 106.65 153.6 106.8 154.15 107.3 156 108.2 157.4 108.6 157.2 109.15 157.2 109.8 157.3 110.3 157.7 110.45 157.85 110.6 158.05 110.85 158.4 110.85 158.9 110.85 159.25 110.55 159.7 110.8 159.85 111.05 159.95 111.1 159.8 111.3 159.6 110.75 157.52578125 110.75 155.25 110.5 155.35 110.15 155.7 109.75 156 108.95 155.7 108.1 155.4 107.8 154.85 107.45 154.3 107.05 153.9 106.8 153.45 106.55 153.15
M 110.8 144.4
Q 110.15 144.9 109.75 147.5 109.75 147.7 109.8 147.85 109.9 148.6 110 149.5 109.85 148.75 109.75 148.2 109.70625 148.06875 109.7 147.95 109.7046875 148.1142578125 109.75 148.25 109.8 148.8 109.95 149.4 110.1 149.95 110.25 150.5 110.35 150.9 110.5 151.35 110.55 151.35 110.55 151.4 110.65 151.8 110.85 152.2
L 110.95 152.45
Q 110.8 153.5 110.75 154.6 111.5 153.45 113.25 152.2 116.6 149.9 120.1 150.15 123.65 150.4 124.45 150.85 125.3 151.35 127 153.6 126.9 151.1 126.15 148.25 125.3 145.1 121.45 143.8 117.6 142.55 114.35 142.95 112.25 143.2 110.8 144.4
M 149.7 145
Q 149.7 144.95 149.7 144.9 149.7 144.8 149.7 144.7
L 149.65 145.4 149.7 145
M 137.35 143.8
Q 133.55 145.1 132.65 148.25 131.9 151.15 131.4 156 132.15 152.25 133.5 151.6 134.9 150.95 138.7 151.05 142.55 151.1 144.65 152.65 146.65 154.1 148.35 157.5 148.15 158.8 147.8 160.1 148.5 159.95 149.2 159.5 149.15 159.4 149.1 159.35 148.85 158.85 148.85 158.45 148.85 158.25 148.85 158.05 148.95 157.55 149.35 157.2 149.85 156.7 150.55 156.7 151.05 156.7 151.5 156.95 151.6 156.7 151.8 156.4 152.3 155.4 152.6 154.15 152.9 153.15 153 152.25 152.75 152.55 152.55 153.15 152.1 154.15 151.95 154.35 151.2 155.5 151.15 155.55 150.75 155.85 149.8 155.85 149.3 155.85 148.9 155.7 148.6 155.55 148.45 155.4 148.45 155.35 148.45 155.25 148.45 153.95 148.25 152.6 148.2 152.5 148.2 152.35
L 148.3 152.1
Q 148.45 151.8 148.55 151.45
L 148.6 151.45
Q 149.2 149.4 149.45 148.45 149.5 148.2 149.5 148.05 149.55 147.9 149.55 147.8 149.6 147.35 149.5 147.7 149.45 147.85 149.45 148.05 149.4 148 149.35 148
L 149.45 147.45 149.45 147.35 149.45 147.3 149.45 147.25 149.5 146.8 149.55 146.2 149.35 147.8 149.3 147.8
Q 148.95 145.8 148.15 144 147.2 143.7 145.7 143.45 141.25 142.55 137.35 143.8 Z"/>

<path fill="#FFCC00" stroke="none" d="
M 149.1 159.35
Q 149.15 159.4 149.2 159.5 149.65 160.1 150.55 160.1 151.4 160.1 151.85 159.45 152.25 158.95 152.25 158.5 152.25 157.65 151.75 157.2 151.55 158.4 150.05 158.4 149.25 158.4 149.2 158.35 149.15 158.35 148.85 158.05 148.85 158.25 148.85 158.45 148.85 158.85 149.1 159.35
M 107.45 158.9
Q 107.45 159.3 107.7 159.75 108.15 160.55 109.15 160.55 109.95 160.55 110.45 159.9 110.55 159.75 110.55 159.7 110.85 159.25 110.85 158.9 110.85 158.4 110.6 158.05 110.45 158.4 110.05 158.6 109.7 158.9 109.4 159.05 108.9 159.35 108.4 159.35 108 159.35 107.55 159 107.5 158.95 107.45 158.9 Z"/>

<path fill="#FFFF00" stroke="none" d="
M 151.7 157.1
Q 151.6 157 151.5 156.95 151.05 156.7 150.55 156.7 149.85 156.7 149.35 157.2 148.95 157.55 148.85 158.05 149.15 158.35 149.2 158.35 149.25 158.4 150.05 158.4 151.55 158.4 151.75 157.2 151.7 157.15 151.7 157.1
M 110.3 157.7
Q 109.8 157.3 109.15 157.2 108.6 157.2 108.2 157.4 108.1 157.45 107.95 157.55 107.45 158.05 107.45 158.9 107.5 158.95 107.55 159 108 159.35 108.4 159.35 108.9 159.35 109.4 159.05 109.7 158.9 110.05 158.6 110.45 158.4 110.6 158.05 110.45 157.85 110.3 157.7 Z"/>

<path fill="#CC99FF" stroke="none" d="
M 117.25 177.1
Q 117.2 177.7 117.15 178.45 117.1 180.25 116.55 181.45
L 116.55 181.65 117.95 181.65
Q 118.5 181.45 119.9 181.2 121.05 180.85 121.55 180.05
L 121.55 175.95 121.55 175.5
Q 121.15 176 120.5 176.45 119.4 177.2 118.4 177.2 117.65 177.1 117.25 177.1
M 115.8 167.65
Q 115.55 168.7 115.35 169.45 115.3 169.7 115.3 171.55 115.3 171.8 115.35 174.3 115.45 174.45 115.6 174.55 116.35 175.3 117.25 175.6
L 117.3 175.5
Q 117.3 175.55 117.3 175.6 117.95 175.8 118.7 175.8 120.1 175.8 120.7 174.85 121.1 174.2 121.1 172.8 121.1 172.45 121.05 172.05 119.3 170.85 117.85 169.6 117.85 169.75 117.85 169.85 117.85 171 117.8 171.35 117.75 172.1 117.4 172.75
L 117.3 172.75
Q 116.85 171.8 116.9 168.8
L 116.9 168.7
Q 116.85 168.7 116.85 168.65 116.3 168.15 115.8 167.65
M 111.5 160.2
Q 111.45 160.1 111.45 160.05 111.25 160 111.05 159.95 110.3 162 108.95 164.6 107.85 167.25 107.85 171.25 107.85 173.4 108.9 174.35 109.75 175.1 111.35 175.1 113.2 175.1 113.9 173.3 114.2 172.6 114.35 171.3 114.35 171.2 114.35 171.1
L 114.35 171.05
Q 114.35 171 114.35 170.95 114.35 170.9 114.4 170.85 114.4 170.65 114.4 170.4 114.4 169.95 114.45 169.55 114.45 168.65 114.55 168.05 114.65 167.15 114.85 166.5 114.6 166.15 114.35 165.85 112.95 171.95 111.55 171.35 111.1 171.5 110.9 170.85 110.75 170.25 110.95 169.65 110.95 169.5 110.95 169.35 110.95 167.45 111.2 166.25 111.55 165 112.55 162.9 111.9 161.6 111.5 160.2
M 117.25 135.9
Q 115.45 135.9 114.65 135.5 113.6 134.9 113.6 133.35 113.6 132.8 113.7 132.25 109.45 137.55 109.45 144.6 109.45 145.1 109.75 147.5 110.15 144.9 110.8 144.4 112.25 140.65 115.35 137.6 116.25 136.7 117.25 135.9
M 142.75 129.4
Q 143.1 130.55 143.1 131.65 143.1 134 142.05 134.65 141.6 134.95 140.8 135.1 142.35 136.15 143.8 137.6 146.7 140.5 148.15 144 148.95 145.8 149.3 147.8
L 149.35 147.8
Q 149.4 146.05 149.3 144.4 148.8 135.4 143.8 130.4 143.25 129.9 142.75 129.4 Z"/>

<path fill="#993399" stroke="none" d="
M 121.05 172.05
Q 121.1 172.45 121.1 172.8 121.1 174.2 120.7 174.85 120.1 175.8 118.7 175.8 117.95 175.8 117.3 175.6 117.25 176 117.25 177.1 117.65 177.1 118.4 177.2 119.4 177.2 120.5 176.45 121.15 176 121.55 175.5
L 121.55 172.4
Q 121.3 172.2 121.05 172.05
M 115.35 169.45
Q 115.55 168.7 115.8 167.65 115.3 167.1 114.85 166.5 114.65 167.15 114.55 168.05 114.45 168.65 114.45 169.55 114.4 169.95 114.4 170.4 114.4 170.65 114.4 170.85 114.35 170.9 114.35 170.95 114.35 171 114.35 171.05
L 114.35 171.1
Q 114.35 171.2 114.35 171.3 114.35 173.05 115.35 174.3 115.3 171.8 115.3 171.55 115.3 169.7 115.35 169.45
M 111.15 170.5
Q 111 170.2 110.95 169.65 110.75 170.25 110.9 170.85 111.1 171.5 111.55 171.35 112.95 171.95 114.35 165.85 114.05 165.4 113.75 165 113.4 165.95 112.75 168.2 112.1 170.2 111.15 170.5 Z"/>

<path fill="#E6CCFF" stroke="none" d="
M 129.55 124.5
Q 129.15 124.5 128.75 124.5 120.95 124.8 115.35 130.4 114.45 131.3 113.7 132.25 113.6 132.8 113.6 133.35 113.6 134.9 114.65 135.5 115.45 135.9 117.25 135.9 122.25 131.95 128.75 131.75 129.15 131.7 129.55 131.7 135.85 131.7 140.8 135.1 141.6 134.95 142.05 134.65 143.1 134 143.1 131.65 143.1 130.55 142.75 129.4 137.15 124.5 129.55 124.5 Z"/>
</g>

<g id="Layer0_0_MEMBER_1_MEMBER_0_FILL">
<path fill="#000000" stroke="none" d="
M 148.45 144.65
Q 143.8 142.35 134.15 143.8
L 134.05 145.2
Q 142.9 143.65 148.45 144.65 Z"/>
</g>

<g id="Layer0_0_MEMBER_1_MEMBER_1_FILL">
<path fill="#000000" stroke="none" d="
M 124.95 145.25
L 124.85 143.85
Q 115.2 142.4 110.5 144.7 116.15 143.75 124.95 145.25 Z"/>
</g>

<g id="Layer0_0_MEMBER_1_MEMBER_2_FILL">
<path fill="#FF6666" stroke="none" d="
M 125.95 169.95
Q 127.25 171.1 129.95 171.1 132.65 171.1 133.7 170.2 134.75 169.2 135.45 168.6 136.2 168 136.95 166.4 136.9 166.45 136.85 166.45 130.9 170.05 123.05 166.75 123.9 167.85 124.25 168.3 124.65 168.75 125.95 169.95 Z"/>

<path fill="#CC3333" stroke="none" d="
M 125.5 166
Q 123.95 167 123.05 166.75 130.9 170.05 136.85 166.45 135.65 166.95 133.95 165.95 132.2 164.9 129.65 164.95 127.1 164.95 125.5 166 Z"/>
</g>

<g id="Layer0_0_MEMBER_1_MEMBER_3_FILL">
<path fill="#FDB40B" stroke="none" d="
M 121.5 152.45
Q 121.5 152.5 121.5 152.55 121.55 152.55 121.6 152.5
L 121.5 152.45 Z"/>

<path fill="#CAC902" stroke="none" d="
M 121 151.2
Q 120.45 150.7 119.6 150.7 118.65 150.7 117.95 151.15 117.55 151.4 117.4 151.75 117.55 152.1 117.9 152.35 118.7 153.1 119.8 153.1 120.75 153.1 121.5 152.55 121.5 152.5 121.5 152.45 121.5 151.7 121 151.2 Z"/>

<path fill="#999900" stroke="none" d="
M 119.6 150.7
Q 120.45 150.7 121 151.2 121.5 151.7 121.5 152.45
L 121.6 152.5
Q 121.65 152.45 121.75 152.35 122.55 151.6 122.55 150.55 122.55 149.5 121.75 148.75 120.95 148.05 119.8 148.05 118.7 148.05 117.9 148.75 117.05 149.5 117.05 150.55 117.05 151.2 117.4 151.75 117.55 151.4 117.95 151.15 118.65 150.7 119.6 150.7
M 119.9 149.55
Q 119.9 149.8 119.7 150.1 119.4 150.45 118.9 150.45 118.35 150.45 118.1 150.05 117.95 149.75 117.95 149.55 117.95 148.6 118.9 148.7 119.9 148.75 119.9 149.55 Z"/>

<path fill="#FFFFFF" stroke="none" d="
M 119.7 150.1
Q 119.9 149.8 119.9 149.55 119.9 148.75 118.9 148.7 117.95 148.6 117.95 149.55 117.95 149.75 118.1 150.05 118.35 150.45 118.9 150.45 119.4 150.45 119.7 150.1 Z"/>
</g>

<g id="Layer0_0_MEMBER_1_MEMBER_4_FILL">
<path fill="#A07001" stroke="none" d="
M 133.5 160.6
Q 133.5 160.25 133.25 159.55 133.35 160.45 132.85 160.8 132.05 161.45 130.7 161.9 129.3 162.3 127.4 161.45 125.5 160.55 125.75 159.6 125.9 159.05 126 158.75
L 125.5 159.9
Q 125.45 160.8 125.7 161.3 126 161.8 127.6 162.9 129.15 164 130.15 164 131.05 164 132.35 162.45 133.5 161.1 133.5 160.6 Z"/>
</g>

<g id="Layer0_0_MEMBER_1_MEMBER_5_FILL">
<path fill="#FDB40B" stroke="none" d="
M 140.65 152.55
Q 140.7 152.55 140.75 152.5
L 140.65 152.45
Q 140.65 152.5 140.65 152.55 Z"/>

<path fill="#CAC902" stroke="none" d="
M 138.75 150.7
Q 137.8 150.7 137.1 151.15 136.7 151.4 136.55 151.75 136.7 152.1 137.05 152.35 137.85 153.1 138.95 153.1 139.9 153.1 140.65 152.55 140.65 152.5 140.65 152.45 140.65 151.7 140.15 151.2 139.6 150.7 138.75 150.7 Z"/>

<path fill="#999900" stroke="none" d="
M 141.7 150.55
Q 141.7 149.5 140.9 148.75 140.1 148.05 138.95 148.05 137.85 148.05 137.05 148.75 136.2 149.5 136.2 150.55 136.2 151.2 136.55 151.75 136.7 151.4 137.1 151.15 137.8 150.7 138.75 150.7 139.6 150.7 140.15 151.2 140.65 151.7 140.65 152.45
L 140.75 152.5
Q 140.8 152.45 140.9 152.35 141.7 151.6 141.7 150.55
M 139.05 149.55
Q 139.05 149.8 138.85 150.1 138.55 150.45 138.05 150.45 137.5 150.45 137.25 150.05 137.1 149.75 137.1 149.55 137.1 148.6 138.05 148.7 139.05 148.75 139.05 149.55 Z"/>

<path fill="#FFFFFF" stroke="none" d="
M 138.85 150.1
Q 139.05 149.8 139.05 149.55 139.05 148.75 138.05 148.7 137.1 148.6 137.1 149.55 137.1 149.75 137.25 150.05 137.5 150.45 138.05 150.45 138.55 150.45 138.85 150.1 Z"/>
</g>

<path id="Layer0_0_MEMBER_1_1_STROKES" stroke="#999999" stroke-width="1" stroke-linejoin="round" stroke-linecap="round" fill="none" d="
M 149.7 144.65
L 149.7 144.7
M 149.65 145.4
L 149.55 146.6 149.5 146.8 149.45 147.275
M 149.45 147.3
L 149.45 147.35"/>

<path id="Layer0_0_MEMBER_1_2_STROKES" stroke="#CCCCCC" stroke-width="1" stroke-linejoin="round" stroke-linecap="round" fill="none" d="
M 149.55 146.75
L 149.5 147.1
M 149.5 147.7
Q 149.45703125 147.7 149.45 147.725
M 149.45 147.275
Q 149.46015625 147.2294921875 149.5 147.15
M 149.35 148
L 149.45 147.45 149.45 147.35
M 149.45 147.3
L 149.45 147.275
M 149.45 147.725
L 149.45 147.75
Q 149.4 147.85 149.35 148"/>

<path id="Layer0_0_MEMBER_1_3_STROKES" stroke="#990000" stroke-width="1" stroke-linejoin="round" stroke-linecap="round" fill="none" d="
M 111.325 159.625
Q 111.1 159.8 111.05 159.95"/>

<path id="Layer0_0_MEMBER_1_MEMBER_2_1_STROKES" stroke="#990000" stroke-width="1" stroke-linejoin="round" stroke-linecap="round" fill="none" d="
M 123.05 166.75
Q 130.9 170.05 136.85 166.45"/>
</defs>

<g transform="matrix( 1, 0, 0, 1, -88.55,-102.75) ">
<use xlink:href="#Layer0_0_MEMBER_0_FILL"/>
</g>

<g transform="matrix( 1, 0, 0, 1, -88.55,-102.75) ">
<use xlink:href="#Layer0_0_MEMBER_1_FILL"/>

<use xlink:href="#Layer0_0_MEMBER_1_1_STROKES"/>

<use xlink:href="#Layer0_0_MEMBER_1_2_STROKES"/>

<use xlink:href="#Layer0_0_MEMBER_1_3_STROKES"/>
</g>

<g transform="matrix( 1, 0, 0, 1, -88.55,-102.75) ">
<use xlink:href="#Layer0_0_MEMBER_1_MEMBER_0_FILL"/>
</g>

<g transform="matrix( 1, 0, 0, 1, -88.55,-102.75) ">
<use xlink:href="#Layer0_0_MEMBER_1_MEMBER_1_FILL"/>
</g>

<g transform="matrix( 1, 0, 0, 1, -88.55,-102.75) ">
<use xlink:href="#Layer0_0_MEMBER_1_MEMBER_2_FILL"/>

<use xlink:href="#Layer0_0_MEMBER_1_MEMBER_2_1_STROKES"/>
</g>

<g transform="matrix( 1, 0, 0, 1, -88.55,-102.75) ">
<use xlink:href="#Layer0_0_MEMBER_1_MEMBER_3_FILL"/>
</g>

<g transform="matrix( 1, 0, 0, 1, -88.55,-102.75) ">
<use xlink:href="#Layer0_0_MEMBER_1_MEMBER_4_FILL"/>
</g>

<g transform="matrix( 1, 0, 0, 1, -88.55,-102.75) ">
<use xlink:href="#Layer0_0_MEMBER_1_MEMBER_5_FILL"/>
</g>
</svg>
