
<svg xmlns="http://www.w3.org/2000/svg" version="1.1" xmlns:xlink="http://www.w3.org/1999/xlink" preserveAspectRatio="none" x="0px" y="0px" width="130px" height="224px" viewBox="0 0 130 224">
<defs>
<g id="bt_01_0_Layer0_0_FILL">
<path fill="#FFEAD5" stroke="none" d="
M -47 68.8
Q -48.55 68.8 -52.5 68.3 -53.55 68.1 -54.55 68.1
L -54.65 70.15
Q -55.25 78.7 -54.45 95.95 -54.05 105.55 -53.65 112.05
L -37.1 112.05
Q -36.5 99.5 -36.7 86.25 -37 77.2 -37.4 67.9 -38.65 68.4 -40.05 68.6 -41.4 68.8 -47 68.8
M 39.8 62.9
Q 39.5 88 38.25 96.15 37.95 97.5 37.85 99 37.95 100.25 38.05 101.55 38.05 101.85 38.05 102.15
L 37.55 102.15
Q 37.35 106.55 37.45 112.05
L 55.5 112.05
Q 55.9 108.5 56.4 104.3 58.25 87.1 58.25 78.6
L 58.25 62.5
Q 56.4 63.6 54.2 63.9 52.95 64.1 47.15 64.1 43.7 64.1 41.1 63.4 40.6 63.2 39.8 62.9 Z"/>

<path fill="#FEC792" stroke="none" d="
M -52.5 68.3
Q -48.55 68.8 -47 68.8 -41.4 68.8 -40.05 68.6 -38.65 68.4 -37.4 67.9 -37.6 64.35 -37.85 60.95
L -39.25 61.05
Q -46.5 62.3 -53.95 59.65
L -54.55 68.1
Q -53.55 68.1 -52.5 68.3
M 39.8 57.5
Q 39.8 60.35 39.8 62.9 40.6 63.2 41.1 63.4 43.7 64.1 47.15 64.1 52.95 64.1 54.2 63.9 56.4 63.6 58.25 62.5
L 58.25 54.45
Q 50 59.15 39.8 57.5 Z"/>

<path fill="#666666" stroke="none" d="
M -37.4 41.8
L -35.4 26.4
Q -45.35 48.4 -53.25 49.75 -55.45 50.05 -57.7 50.05 -60.9 50.05 -63 49.15
L -64.45 54.25
Q -59.95 57.4 -55.45 59.15 -54.75 59.45 -53.95 59.65 -46.5 62.3 -39.25 61.05 -38.55 60.75 -37.85 60.65
L -37.4 41.8
M 37.25 88.2
Q 24.8 95.15 22.85 96.05 15.2 99.1 2.35 99.1 -9.9 99.1 -29.65 89.75 -33.15 88 -35.9 86.65 -36.4 86.45 -36.7 86.25 -36.5 99.5 -37.1 112.05
L 27.85 112.05
Q 32.65 108.2 37.55 102.15 37.75 101.85 38.05 101.55 37.95 100.25 37.85 99 37.45 93.7 37.25 88.2
M 62.65 44.45
Q 55.6 48.8 47.95 48.8 41.75 48.8 36.35 35.85
L 37.65 57.1
Q 38.7 57.3 39.8 57.5 50 59.15 58.25 54.45 61.55 52.6 64.5 49.65
L 62.65 44.45 Z"/>

<path fill="#333333" stroke="none" d="
M 38.05 101.55
Q 37.75 101.85 37.55 102.15
L 38.05 102.15
Q 38.05 101.85 38.05 101.55
M 37.55 102.15
Q 32.65 108.2 27.85 112.05
L 37.45 112.05
Q 37.35 106.55 37.55 102.15 Z"/>

<path fill="#999999" stroke="none" d="
M 11.45 -10.55
L 11.45 -5.35
Q 0.85 7.8 -12.95 -1.95
L -12.95 -11.45
Q -36 -4.2 -50.8 7.9
L -63 49.15
Q -60.9 50.05 -57.7 50.05 -55.45 50.05 -53.25 49.75 -45.35 48.4 -35.4 26.4
L -37.4 41.8 -37.85 60.65
Q -37.85 60.75 -37.85 60.95 -37.6 64.35 -37.4 67.9 -37 77.2 -36.7 86.25 -36.4 86.45 -35.9 86.65 -33.15 88 -29.65 89.75 -9.9 99.1 2.35 99.1 15.2 99.1 22.85 96.05 24.8 95.15 37.25 88.2 36.85 75.45 37.45 61.9 37.55 59.45 37.65 57.1
L 36.35 35.85
Q 41.75 48.8 47.95 48.8 55.6 48.8 62.65 44.45
L 48.65 5.8
Q 31.05 -7.05 11.45 -10.55 Z"/>
</g>

<g id="bt_01_0_Layer0_0_MEMBER_0_FILL">
<path fill="#FEC792" stroke="none" d="
M 4.85 -13.4
Q 8.35 -14.95 11.45 -16.55
L 11.45 -25.1
Q -4.05 -41.95 -12.8 -22.25 -12.95 -22.05 -13 -21.85
L -13 -14.75
Q -12.45 -14.35 -11.8 -13.85 -6.5 -10.45 -3.4 -10.45 -1.85 -10.45 4.85 -13.4 Z"/>

<path fill="#FFEAD5" stroke="none" d="
M 11.45 -16.55
Q 8.35 -14.95 4.85 -13.4 -1.85 -10.45 -3.4 -10.45 -6.5 -10.45 -11.8 -13.85 -12.45 -14.35 -13 -14.75
L -13 -1.95
Q 0.8 7.8 11.45 -5.35
L 11.45 -16.55 Z"/>
</g>

<g id="bt_01_0_Layer0_0_MEMBER_0_MEMBER_0_FILL">
<path fill="#F46302" stroke="none" d="
M -58.7 -60.8
L -58.7 -60.65
Q -53.45 -60.9 -48.95 -63.4 -44.75 -65.55 -40.25 -70.3 -42.5 -68.6 -47.45 -65.85 -55.45 -61.15 -58.7 -60.8
M -31.75 -50.3
Q -31.55 -52.55 -31.25 -54.65 -30.7 -58.75 -30.05 -60.85 -31.25 -59.7 -32.35 -58.6 -32.7 -56.95 -33 -54.65 -33.3 -52.55 -33.5 -50.3 -33.75 -46.35 -33.75 -42.45 -33.75 -39.15 -32.4 -32.65 -31.55 -29.1 -30.65 -26.05 -29.5 -24 -27.9 -22.7 -29.35 -27 -30.65 -32.65 -32.05 -39.15 -32.05 -42.45 -32.05 -46.35 -31.75 -50.3
M -39.45 -64.85
Q -36.55 -66.85 -31.25 -72.55 -39.9 -65.15 -52.3 -60.45 -52.25 -60.25 -52.1 -60.1 -44.15 -61.6 -39.45 -64.85
M -37.5 -82.45
Q -38.2 -82.05 -38.9 -81.75 -50.55 -75.9 -56.75 -75.7
L -56.75 -75.45
Q -53.85 -74 -50.95 -74 -48.7 -74 -45.75 -75.5 -42.95 -76.85 -40.5 -79.1 -38.7 -80.75 -37.5 -82.45
M 25.15 -57.3
Q 24.35 -57.1 23.8 -56.65 23.7 -55.45 23.6 -54.25 23.5 -52.7 23.45 -51.75 23.4 -50.85 23.4 -50.5 23.4 -46.3 24 -42.8 24.35 -40.4 25 -38.4
L 25.2 -38.45
Q 25.5 -37.35 25.75 -36.35
L 25.95 -36.4
Q 25.7 -39.05 25.95 -43.55 26.25 -48.95 26.25 -50.55 26.1 -54.4 25.15 -57.3
M 24.45 -68.5
L 22.7 -68.5
Q 22.65 -68.5 22.5 -68.4 22.35 -68.3 22.35 -67.75 22.35 -64.45 31 -59.7 31.95 -59.15 32.85 -58.7
L 32.85 -58.8
Q 30.95 -60.45 29.8 -61.55 26.9 -64.45 25.5 -67.05 24.6 -68.2 24.45 -68.5
M 38.15 -65.55
Q 36.45 -66.6 35 -67.45 30 -70.6 28.3 -71.9 29.1 -71.95 30 -72.1 29.35 -72.3 28.6 -72.65 27.25 -73.3 26.7 -73.3 25.9 -73.3 25.5 -73 25.15 -72.65 25.15 -72.1 25.15 -67.4 36.75 -64.05 39.95 -63.1 43.6 -62.35 41.3 -63.7 38.15 -65.55
M 10.15 -110.7
Q 5.8 -110.7 0.35 -109.2 -3.45 -108.2 -5.05 -107.6 -6.75 -108.55 -8.9 -109.9 -12.3 -112.1 -14.65 -112.1 -18.5 -112.1 -22.6 -108.35 -26.15 -105.15 -29.5 -99.4 -32.4 -94.35 -34.5 -88.6 -34.6 -88.5 -34.6 -88.35 -34.45 -87.55 -34.2 -86.95 -33.5 -85.65 -32.2 -85.3 -31.75 -85.15 -31.2 -85.15 -29.5 -85.15 -27.9 -85.4 -24.45 -87.75 -22.25 -89.75 -22.75 -88.8 -23.6 -87.4 -24.25 -86.4 -24.6 -85.8 -24.1 -85.9 -23.6 -86.05 -22.4 -86.35 -21.15 -86.95 -20.15 -87.4 -19.15 -88.1 -18.8 -88.3 -18.45 -88.6 -17.1 -89.45 -14.7 -91.05 -11.65 -92.85 -7.6 -94.3 -6.65 -92.1 -4.05 -89.35 -1 -86.15 3 -83.45 4.25 -82.65 5.45 -81.95 4.65 -83.05 3.75 -84.2 1.5 -87.5 1.1 -88.05 2.65 -86.45 3.95 -85.15 5 -84.35 8.45 -82.7 7.85 -84.95 7.15 -86.9 6.8 -87.65 6.2 -88.9 6.7 -88.25 7.65 -87.3 9.4 -85.6 10.5 -84.9
L 10.9 -84.9
Q 10.45 -86.2 10.45 -86.35 10.15 -87.1 10.15 -87.65
L 10.15 -88.7
Q 10.7 -86.8 14.65 -83.8 18 -81.3 22.35 -78.9 21.95 -79.1 17.1 -80.25 13.65 -81.1 11.2 -82.45 12.6 -81.45 16.9 -77.5 21.25 -76.45 26.05 -76.45 32.7 -76.45 36.4 -77.75 37.2 -77.95 37.9 -78.3 37 -78.55 36.1 -78.9 32.85 -80.25 30.05 -82.8 28.55 -87.15 27.35 -91.35 26.05 -95.55 20.4 -103.15 14.5 -110.7 10.15 -110.7
M 5.25 -99.5
Q 2.05 -103.15 0.4 -103 0.9 -103.65 2.1 -103.9 3.2 -104.25 4.25 -104.05 3.7 -104.65 3.3 -105.2 2.85 -105.8 2.85 -106.15 3.2 -106.15 3.55 -106.15 5.05 -106.3 8.05 -106.5 10.75 -106.7 12.2 -106.85
L 12.25 -106.7
Q 11.2 -106.4 10.3 -105.8 9.35 -105.15 9.15 -105.15 9.35 -104.95 11.3 -102.95 12 -102.2 15 -98.85 13.65 -98.85 11.3 -100.25 9 -101.7 8.45 -102 8.45 -100.55 8.95 -98.65 9.3 -97.5 10.15 -94.3
L 10.05 -94.1
Q 9.2 -94.85 7.85 -96.4 5.6 -99.15 5.25 -99.5
M -14.75 -108.95
Q -13.75 -108.95 -11 -107.5 -9.5 -106.7 -6.3 -104.7 -6.2 -104.65 -6.05 -104.5 -5.65 -104.3 -5.45 -104.05 -4.9 -103.5 -3.8 -102 -7 -103.2 -8.35 -103.65 -10.6 -104.45 -12.5 -104.45 -15.3 -104.45 -17.15 -102.95 -18.6 -101.5 -19.75 -100.85 -19.15 -101.95 -18.05 -103.65 -16.6 -105.9 -15.65 -106.85
L -16 -106.85
Q -16.55 -106.4 -17.15 -106.3
L -18.05 -105.95
Q -19.25 -105.35 -21.65 -102.7 -20.55 -104.95 -18.7 -106.75 -16.45 -108.95 -14.75 -108.95 Z"/>

<path fill="#CA5202" stroke="none" d="
M -58.7 -60.65
L -58.7 -60.8
Q -59.05 -60.8 -59.3 -60.8 -59 -60.7 -58.7 -60.65
M -23.6 -86.05
Q -24.1 -85.9 -24.6 -85.8 -24.9 -85.4 -25.05 -85.15
L -25.05 -84.9 -23.35 -84.9
Q -22.05 -86.2 -21.15 -86.95 -22.4 -86.35 -23.6 -86.05
M 44.35 -59
L 49.2 -59 49.25 -59.2
Q 49.4 -59.35 49.6 -59.35 47.55 -60.15 43.6 -62.35 39.95 -63.1 36.75 -64.05 25.15 -67.4 25.15 -72.1 25.15 -72.65 25.5 -73 25.9 -73.3 26.7 -73.3 27.25 -73.3 28.6 -72.65 29.35 -72.3 30 -72.1 29.1 -71.95 28.3 -71.9 30 -70.6 35 -67.45 35.65 -70.8 35.65 -71.6 35.65 -72.35 35.25 -73.4 35.9 -73.65 36.65 -73.95 41.75 -75.7 45.45 -78 41.75 -77.05 37.9 -78.3 37.2 -77.95 36.4 -77.75 32.7 -76.45 26.05 -76.45 21.25 -76.45 16.9 -77.5 15.6 -77.75 14.4 -78.15
L 14.3 -77.9
Q 14.3 -77.8 16.85 -73.2 18.4 -70.3 20.25 -68.75
L 20.15 -68.7
Q 13.1 -72.8 7.55 -79.3 6.55 -80.45 5.45 -81.95 4.25 -82.65 3 -83.45 -1 -86.15 -4.05 -89.35 -6.65 -92.1 -7.6 -94.3 -11.65 -92.85 -14.7 -91.05 -17.1 -89.45 -18.45 -88.6 -18.8 -88.3 -19.15 -88.1
L -18.85 -87.95
Q -19.2 -87.4 -19.65 -86.65 -21.5 -83.6 -22.25 -82.45 -19.9 -82.4 -17.85 -83.45 -16.95 -84 -15.95 -84.9 -17 -83.15 -21.85 -78.15 -25.65 -74.4 -27.35 -72.8
L -27.45 -72.85
Q -26.15 -74.15 -25.2 -76 -24.3 -77.55 -23.35 -80 -25.05 -79.6 -29 -77.75 -30.5 -77.05 -34.5 -75
L -34.5 -75.15
Q -30.7 -77.8 -28.6 -80
L -28.6 -80.35
Q -30.45 -80.05 -32.8 -80 -34.25 -80 -37.3 -80 -36.3 -80.2 -34.8 -80.9 -34.65 -80.95 -34.45 -81.1 -34.2 -81.15 -31.95 -82.65 -30.35 -83.6 -28.55 -84.9 -28.2 -85.15 -27.9 -85.4 -29.5 -85.15 -31.2 -85.15 -31.75 -85.15 -32.2 -85.3 -34.2 -84.15 -36.25 -83.05 -36.7 -82.85 -37.25 -82.6 -37.3 -82.45 -37.5 -82.45 -38.7 -80.75 -40.5 -79.1 -42.95 -76.85 -45.75 -75.5 -48.7 -74 -50.95 -74 -53.85 -74 -56.75 -75.45
L -56.75 -75.7
Q -57.05 -75.7 -57.35 -75.7 -57.8 -75.7 -58.25 -75.75 -57.15 -74.6 -54.8 -73.45 -52.45 -72.35 -46.8 -71.9
L -38.35 -71.9
Q -38.75 -71.35 -40.25 -70.3 -44.75 -65.55 -48.95 -63.4 -53.45 -60.9 -58.7 -60.65 -57.15 -60.5 -55.7 -60.45 -54.7 -60.45 -52.3 -60.45 -39.9 -65.15 -31.25 -72.55 -36.55 -66.85 -39.45 -64.85 -44.15 -61.6 -52.1 -60.1 -50.2 -57.8 -40.8 -60.4 -40.5 -60.45 -40.1 -60.6 -38.75 -61 -37.2 -61.45 -35.7 -62 -34.45 -62.4 -34.65 -62.1 -34.85 -61.8 -36.3 -59.95 -37.4 -58.7 -37.8 -58.2 -38.25 -57.7 -39.65 -56.15 -40.2 -55.45 -40.25 -55.35 -40.45 -55.2 -41.05 -54.5 -42.85 -53
L -42.9 -53
Q -44.6 -50.75 -47.05 -50.65 -45 -50.55 -42.65 -51.45 -41.55 -51.85 -40.25 -52.55 -38.9 -53.3 -37.3 -54.4 -36.95 -54.65 -36.65 -55
L -36.65 -53.15 -36.65 -49.6
Q -36 -47.85 -35.4 -44.35 -35.35 -43.9 -35.25 -43.35 -35.05 -41.9 -34.85 -40.75 -35.05 -39.4 -35.7 -37.55 -36.9 -33.7 -39.3 -29.4 -41.75 -24.95 -44.35 -21.9 -47.1 -18.6 -49.15 -18.2
L -48.15 -18.2
Q -48 -18.2 -47.8 -18.2 -46.5 -18.75 -42.35 -21.35 -38 -24.05 -37.3 -24.8
L -36.95 -24.8
Q -36.3 -21.7 -40.85 -15.35 -45.4 -8.95 -50.2 -8.05
L -46.35 -8.05
Q -41.35 -8.2 -33.15 -12.85 -25 -17.55 -24.8 -18.9
L -24.35 -19.25
Q -24.5 -19.1 -24.6 -18.85
L -24.6 -18.75
Q -25.45 -17.35 -27.7 -14.45 -29.95 -11.55 -33.1 -9.75 -26.35 -9.45 -19.75 -14.4 -17.15 -16.25 -15.1 -18.4 -14.1 -19.65 -13.45 -20.45 -13.75 -20.65 -13.95 -20.85 -20.85 -27.3 -22.45 -29.4 -24.1 -31.5 -28.8 -42.85 -30.3 -46.55 -31.25 -49.2 -31.55 -49.75 -31.75 -50.3 -32.05 -46.35 -32.05 -42.45 -32.05 -39.15 -30.65 -32.65 -29.35 -27 -27.9 -22.7 -29.5 -24 -30.65 -26.05 -31.55 -29.1 -32.4 -32.65 -33.75 -39.15 -33.75 -42.45 -33.75 -46.35 -33.5 -50.3 -33.3 -52.55 -33 -54.65 -32.7 -56.95 -32.35 -58.6 -31.25 -59.7 -30.05 -60.85 -28.4 -62.55 -26.55 -64.45 -24.35 -66.85 -20.15 -71.9 -18.05 -74.25 -15.5 -77.35 -11.7 -81.85 -8.85 -85.05
L -8.65 -84.9
Q -8.55 -84.75 -8.5 -84.7 -5.85 -81.75 0.7 -76 5.75 -71.55 8.65 -69.25 9.5 -68.55 10.15 -68.1 18.95 -61.8 23.7 -60.15 23.8 -60.1 24.2 -59.95
L 24.05 -59.75
Q 23.9 -58.4 23.8 -56.65 24.35 -57.1 25.15 -57.3 26.1 -54.4 26.25 -50.55 26.25 -48.95 25.95 -43.55 25.7 -39.05 25.95 -36.4
L 25.75 -36.35
Q 25.85 -36.15 25.9 -35.95 25.35 -37.3 25 -38.4 24.35 -40.4 24 -42.8 22.1 -38.05 20.65 -34.5 19.1 -30.75 11.05 -24.2 16.45 -20.65 18.95 -17.95 21.25 -15.35 22.3 -12.55
L 22.4 -12.55
Q 21.75 -17.35 21.65 -17.8 24.65 -16.65 29.8 -14.2 33.45 -12.65 36.65 -12.35 36.95 -12.75 39.6 -12.75 41.1 -12.7 43.25 -12.55
L 43.35 -12.9
Q 38.15 -13.7 33.5 -16.85 28.85 -20.2 26.15 -25.15
L 26.15 -27.2 26.5 -27.2
Q 27 -26.95 28.85 -25.35 30.85 -23.55 32.25 -22.5 36.8 -19.1 39.45 -19.5 33.85 -21 30 -27.2 29.9 -27.2 29.9 -27.3 29.85 -27.35 29.85 -27.4 29.15 -28.45 28.6 -29.5 27.1 -32.3 26.1 -35.25 26.05 -35.4 26.05 -35.45 26.05 -35.64375 25.95 -35.7 26.0515625 -35.6453125 26.1 -35.5 27.55 -32.2 30.05 -27.6
L 30.4 -27.6
Q 30.1 -31.15 29.9 -36.35 29.65 -40.9 29.65 -41.8 29.65 -42.55 29.7 -43.3 29.85 -46.6 30.3 -49.15 31.05 -52 31.75 -54.75 32.1 -56.15 32.45 -57.5 33.65 -57.05 34.9 -56.55
L 35.25 -56.65
Q 35.25 -56.7 35.25 -56.85 34.05 -57.7 33.1 -58.6 33 -58.7 32.85 -58.8
L 32.85 -58.7
Q 31.95 -59.15 31 -59.7 22.35 -64.45 22.35 -67.75 22.35 -68.3 22.5 -68.4 22.65 -68.5 22.7 -68.5
L 24.45 -68.5
Q 24.6 -68.2 25.5 -67.05 26.9 -64.45 29.8 -61.55 30.95 -60.45 32.85 -58.8 33 -59.55 33.45 -61 34.2 -60.65 34.9 -60.45 39.8 -58.55 44.35 -59 Z"/>

<path fill="#99CC33" stroke="none" d="
M -21.65 -58.05
Q -21.65 -56.9 -21.05 -55.95 -20.85 -56.85 -19.8 -57.45 -18.9 -57.95 -17.5 -57.95 -16.55 -57.95 -15.65 -56.9 -14.75 -55.9 -14.75 -55 -14.65 -55.05 -14.65 -55.2 -13.8 -55.95 -13.55 -56.85 -13.4 -57.45 -13.4 -58.05 -13.4 -59.75 -14.65 -61 -15.8 -62.2 -17.5 -62.2 -19.2 -62.2 -20.4 -61 -21.6 -59.85 -21.65 -58.2
L -21.65 -58.05
M -14.75 -60.05
Q -14.75 -59.75 -15.1 -59.3 -15.6 -58.7 -16.2 -58.7 -17 -58.7 -17.35 -59.35
L -17.55 -60.05
Q -17.55 -61.55 -16.2 -61.4 -14.75 -61.35 -14.75 -60.05
M 10.05 -60.25
Q 9.3 -59.55 8.95 -58.6 8.85 -58.25 8.8 -57.95 8.8 -57.65 8.8 -57.4 8.8 -56.55 9.05 -55.9 9.3 -56.85 10.05 -57.3 10.85 -57.8 12.5 -57.8 14.4 -57.8 15.2 -57.05 16.1 -56.45 16.2 -55.05 16.9 -55.95 16.95 -57.05 16.95 -57.25 16.95 -57.4 16.95 -57.7 16.95 -58 16.75 -59.3 15.75 -60.25 14.5 -61.45 12.9 -61.45 11.2 -61.45 10.05 -60.25
M 12.5 -59
Q 12.25 -59.7 12.25 -59.75 12.25 -61.15 13.65 -61.05 15.05 -60.9 15.05 -59.7 15.05 -59.35 14.75 -58.9 14.3 -58.35 13.65 -58.35 12.8 -58.35 12.5 -59 Z"/>

<path fill="#FFFFFF" stroke="none" d="
M -15.1 -59.3
Q -14.75 -59.75 -14.75 -60.05 -14.75 -61.35 -16.2 -61.4 -17.55 -61.55 -17.55 -60.05
L -17.35 -59.35
Q -17 -58.7 -16.2 -58.7 -15.6 -58.7 -15.1 -59.3
M -18.85 -87.95
L -19.15 -88.1
Q -20.15 -87.4 -21.15 -86.95 -22.05 -86.2 -23.35 -84.9
L -25.05 -84.9 -25.05 -85.15
Q -24.9 -85.4 -24.6 -85.8 -24.25 -86.4 -23.6 -87.4 -22.75 -88.8 -22.25 -89.75 -24.45 -87.75 -27.9 -85.4 -28.2 -85.15 -28.55 -84.9 -30.35 -83.6 -31.95 -82.65 -34.2 -81.15 -34.45 -81.1 -34.65 -80.95 -34.8 -80.9 -36.3 -80.2 -37.3 -80 -34.25 -80 -32.8 -80 -30.45 -80.05 -28.6 -80.35
L -28.6 -80
Q -30.7 -77.8 -34.5 -75.15
L -34.5 -75
Q -30.5 -77.05 -29 -77.75 -25.05 -79.6 -23.35 -80 -24.3 -77.55 -25.2 -76 -26.15 -74.15 -27.45 -72.85
L -27.35 -72.8
Q -25.65 -74.4 -21.85 -78.15 -17 -83.15 -15.95 -84.9 -16.95 -84 -17.85 -83.45 -19.9 -82.4 -22.25 -82.45 -21.5 -83.6 -19.65 -86.65 -19.2 -87.4 -18.85 -87.95
M 12.25 -59.75
Q 12.25 -59.7 12.5 -59 12.8 -58.35 13.65 -58.35 14.3 -58.35 14.75 -58.9 15.05 -59.35 15.05 -59.7 15.05 -60.9 13.65 -61.05 12.25 -61.15 12.25 -59.75
M 10.15 -88.7
L 10.15 -87.65
Q 10.15 -87.1 10.45 -86.35 10.45 -86.2 10.9 -84.9
L 10.5 -84.9
Q 9.4 -85.6 7.65 -87.3 6.7 -88.25 6.2 -88.9 6.8 -87.65 7.15 -86.9 7.85 -84.95 8.45 -82.7 5 -84.35 3.95 -85.15 2.65 -86.45 1.1 -88.05 1.5 -87.5 3.75 -84.2 4.65 -83.05 5.45 -81.95 6.55 -80.45 7.55 -79.3 13.1 -72.8 20.15 -68.7
L 20.25 -68.75
Q 18.4 -70.3 16.85 -73.2 14.3 -77.8 14.3 -77.9
L 14.4 -78.15
Q 15.6 -77.75 16.9 -77.5 12.6 -81.45 11.2 -82.45 13.65 -81.1 17.1 -80.25 21.95 -79.1 22.35 -78.9 18 -81.3 14.65 -83.8 10.7 -86.8 10.15 -88.7
M -11 -107.5
Q -13.75 -108.95 -14.75 -108.95 -16.45 -108.95 -18.7 -106.75 -20.55 -104.95 -21.65 -102.7 -19.25 -105.35 -18.05 -105.95
L -17.15 -106.3
Q -16.55 -106.4 -16 -106.85
L -15.65 -106.85
Q -16.6 -105.9 -18.05 -103.65 -19.15 -101.95 -19.75 -100.85 -18.6 -101.5 -17.15 -102.95 -15.3 -104.45 -12.5 -104.45 -10.6 -104.45 -8.35 -103.65 -7 -103.2 -3.8 -102 -4.9 -103.5 -5.45 -104.05 -5.65 -104.3 -6.05 -104.5 -6.2 -104.65 -6.3 -104.7 -9.5 -106.7 -11 -107.5
M 0.4 -103
Q 2.05 -103.15 5.25 -99.5 5.6 -99.15 7.85 -96.4 9.2 -94.85 10.05 -94.1
L 10.15 -94.3
Q 9.3 -97.5 8.95 -98.65 8.45 -100.55 8.45 -102 9 -101.7 11.3 -100.25 13.65 -98.85 15 -98.85 12 -102.2 11.3 -102.95 9.35 -104.95 9.15 -105.15 9.35 -105.15 10.3 -105.8 11.2 -106.4 12.25 -106.7
L 12.2 -106.85
Q 10.75 -106.7 8.05 -106.5 5.05 -106.3 3.55 -106.15 3.2 -106.15 2.85 -106.15 2.85 -105.8 3.3 -105.2 3.7 -104.65 4.25 -104.05 3.2 -104.25 2.1 -103.9 0.9 -103.65 0.4 -103 Z"/>

<path fill="#99FF00" stroke="none" d="
M -21.05 -55.95
Q -20.75 -55.55 -20.4 -55.2 -19.2 -54 -17.5 -54 -15.95 -54 -14.75 -55 -14.75 -55.9 -15.65 -56.9 -16.55 -57.95 -17.5 -57.95 -18.9 -57.95 -19.8 -57.45 -20.85 -56.85 -21.05 -55.95
M 10.05 -57.3
Q 9.3 -56.85 9.05 -55.9 9.4 -55.05 10.05 -54.45 11.2 -53.25 12.9 -53.25 14.5 -53.25 15.75 -54.45 16 -54.75 16.2 -55.05 16.1 -56.45 15.2 -57.05 14.4 -57.8 12.5 -57.8 10.85 -57.8 10.05 -57.3 Z"/>

<path fill="#FEC792" stroke="none" d="
M -31.25 -54.65
Q -31.55 -52.55 -31.75 -50.3 -31.55 -49.75 -31.25 -49.2 -29.9 -53.75 -27.25 -55.95 -25 -57.7 -21.65 -58.2 -21.6 -59.85 -20.4 -61 -19.2 -62.2 -17.5 -62.2 -15.8 -62.2 -14.65 -61 -13.4 -59.75 -13.4 -58.05 -13.4 -57.45 -13.55 -56.85 -11.5 -55.75 -9.6 -53.9 -6.25 -50.75 -5.65 -47.35 -5.65 -51.5 -5.9 -54.85 -6.1 -58.25 -11.1 -65.35 -16 -72.45 -19.6 -71.9 -19.9 -71.9 -20.15 -71.9 -24.35 -66.85 -26.55 -64.45 -28.4 -62.55 -30.05 -60.85 -30.7 -58.75 -31.25 -54.65
M -36.65 -53.15
L -36.65 -55
Q -36.95 -54.65 -37.3 -54.4 -38.9 -53.3 -40.25 -52.55 -40.1 -51 -39.65 -49.7 -38.8 -50.45 -37.95 -51.6 -37.1 -52.55 -36.65 -53.15
M -40.3 -57.85
Q -39.85 -57.95 -39.35 -58.15 -38.15 -58.45 -37.4 -58.7 -36.3 -59.95 -34.85 -61.8 -34.65 -62.1 -34.45 -62.4 -35.7 -62 -37.2 -61.45 -38.75 -61 -40.1 -60.6 -40.1 -60.45 -40.1 -60.3 -40.25 -59.5 -40.3 -57.85
M 35.25 -56.45
L 34.9 -56.55
Q 33.65 -57.05 32.45 -57.5 32.1 -56.15 31.75 -54.75 32.85 -53.25 33.6 -52.8 34.2 -52.35 35.25 -52.15 35.25 -52.95 35.25 -53.75 35.25 -55.2 35.25 -56.45
M 8.65 -69.25
Q 7.85 -68.6 7.05 -67.8 4.45 -64.95 2.45 -59.35 1.8 -57.7 1.45 -56.65 0.85 -54.95 0.1 -52.35 2.55 -56.55 4.65 -57.7 6.05 -58.4 8.95 -58.6 9.3 -59.55 10.05 -60.25 11.2 -61.45 12.9 -61.45 14.5 -61.45 15.75 -60.25 16.75 -59.3 16.95 -58 17.3 -57.95 18.6 -57.05 19.85 -56.15 22.2 -53.7 22.9 -52.95 23.45 -51.75 23.5 -52.7 23.6 -54.25 23.7 -55.45 23.8 -56.65 23.9 -58.4 24.05 -59.75
L 24.2 -59.95
Q 23.8 -60.1 23.7 -60.15 18.95 -61.8 10.15 -68.1 9.5 -68.55 8.65 -69.25
M -7.5 -24.5
Q -8.65 -24.05 -8.65 -23.6 -8.65 -23.1 -7.5 -22.7 -6.3 -22.35 -4.7 -22.35 -3 -22.35 -1.85 -22.7 -0.65 -23.1 -0.65 -23.6 -0.65 -24.05 -1.85 -24.5 -3 -24.8 -4.7 -24.8 -6.3 -24.8 -7.5 -24.5
M 0.9 -39.8
Q 0.75 -40.1 0.75 -40.2 0.1 -39.55 -1.7 -38.45 -3.75 -37 -4.15 -37 -4.4 -37 -5.9 -38.7 -6.75 -39.75 -7.05 -40.3 -7 -38.8 -6.3 -36.8 -5.25 -33.55 -4.15 -33.55 -2.65 -33.55 -0.65 -36.35 0.4 -37.7 1.1 -39.05 1.1 -39.6 0.9 -39.8 Z"/>

<path fill="#FFEAD5" stroke="none" d="
M -37.95 -51.6
Q -38.8 -50.45 -39.65 -49.7 -39.15 -48.25 -38.25 -47.05 -37.1 -45.35 -35.4 -44.35 -36 -47.85 -36.65 -49.6
L -36.65 -53.15
Q -37.1 -52.55 -37.95 -51.6
M -38.25 -57.7
Q -37.8 -58.2 -37.4 -58.7 -38.15 -58.45 -39.35 -58.15 -39.85 -57.95 -40.3 -57.85 -40.3 -57.6 -40.3 -57.3 -40.4 -56.5 -40.4 -55.45
L -40.2 -55.45
Q -39.65 -56.15 -38.25 -57.7
M 35.25 -52.15
Q 34.2 -52.35 33.6 -52.8 32.85 -53.25 31.75 -54.75 31.05 -52 30.3 -49.15 29.85 -46.6 29.7 -43.3 31.7 -44.25 33.1 -46.2 34.8 -48.65 35.25 -52.15
M 34.9 -60.45
Q 34.2 -60.65 33.45 -61 33 -59.55 32.85 -58.8 33 -58.7 33.1 -58.6 34.05 -57.7 35.25 -56.85 35.25 -57.2 35.15 -57.5 35 -59.1 34.9 -60.45
M 7.05 -67.8
Q 7.85 -68.6 8.65 -69.25 5.75 -71.55 0.7 -76 -5.85 -81.75 -8.5 -84.7 -8.55 -84.75 -8.65 -84.9
L -8.85 -85.05
Q -11.7 -81.85 -15.5 -77.35 -18.05 -74.25 -20.15 -71.9 -19.9 -71.9 -19.6 -71.9 -16 -72.45 -11.1 -65.35 -6.1 -58.25 -5.9 -54.85 -5.65 -51.5 -5.65 -47.35 -6.25 -50.75 -9.6 -53.9 -11.5 -55.75 -13.55 -56.85 -13.8 -55.95 -14.65 -55.2 -14.65 -55.05 -14.75 -55 -15.95 -54 -17.5 -54 -19.2 -54 -20.4 -55.2 -20.75 -55.55 -21.05 -55.95 -21.65 -56.9 -21.65 -58.05
L -21.65 -58.2
Q -25 -57.7 -27.25 -55.95 -29.9 -53.75 -31.25 -49.2 -30.3 -46.55 -28.8 -42.85 -24.1 -31.5 -22.45 -29.4 -20.85 -27.3 -13.95 -20.85 -13.75 -20.65 -13.45 -20.45 -6.95 -14.6 -4.05 -14.65 -1.1 -14.75 8.95 -22.5 10.1 -23.4 11.05 -24.2 19.1 -30.75 20.65 -34.5 22.1 -38.05 24 -42.8 23.4 -46.3 23.4 -50.5 23.4 -50.85 23.45 -51.75 22.9 -52.95 22.2 -53.7 19.85 -56.15 18.6 -57.05 17.3 -57.95 16.95 -58 16.95 -57.7 16.95 -57.4 16.95 -57.25 16.95 -57.05 16.9 -55.95 16.2 -55.05 16 -54.75 15.75 -54.45 14.5 -53.25 12.9 -53.25 11.2 -53.25 10.05 -54.45 9.4 -55.05 9.05 -55.9 8.8 -56.55 8.8 -57.4 8.8 -57.65 8.8 -57.95 8.85 -58.25 8.95 -58.6 6.05 -58.4 4.65 -57.7 2.55 -56.55 0.1 -52.35 0.85 -54.95 1.45 -56.65 1.8 -57.7 2.45 -59.35 4.45 -64.95 7.05 -67.8
M 11.1 -50.75
Q 12.15 -50.7 12.15 -49.9 12.15 -48.85 11.1 -48.85 10.5 -48.85 10.25 -49.35
L 10.1 -49.9
Q 10.1 -50.75 11.1 -50.75
M 21.35 -42.4
L 21.45 -42.4
Q 21.55 -42.4 21.55 -42 21.55 -41.35 20.3 -41.1
L 19.7 -41.25
Q 19.7 -41.3 19.65 -41.6 19.5 -41.8 19.5 -41.9 19.75 -42.2 20.4 -42.25 20.9 -42.4 21.35 -42.4
M 15.8 -48.4
Q 15.7 -48.05 15.35 -48 15.05 -48.05 14.85 -48.25 14.85 -48.4 15 -48.55 15.15 -48.75 15.35 -48.85 15.7 -48.75 15.8 -48.4
M 18.6 -48.65
Q 18.55 -48.85 18.55 -49.2 18.55 -49.9 19.5 -49.95 20.4 -50.05 20.4 -49.15 20.4 -48.8 20.15 -48.55 19.9 -48.2 19.5 -48.2 19.15 -48.2 19 -48.25 18.8 -48.4 18.7 -48.45 18.7 -48.55 18.6 -48.65
M 10.3 -45
Q 10.7 -44.85 10.75 -44.5 10.7 -44.3 10.65 -44.25 10.5 -44.05 10.1 -44.05
L 9.6 -44.25
Q 9.55 -44.15 9.5 -44.15 9.4 -44.15 9.4 -44.5 9.4 -44.9 9.7 -44.9 9.8 -45 10.3 -45
M 4.15 -47.05
Q 3.35 -47.05 3.1 -47.5 3 -47.7 3 -48.05 3 -49 4.15 -48.85 5.35 -48.8 5.35 -48 5.35 -47.05 4.15 -47.05
M 0.75 -40.2
Q 0.75 -40.1 0.9 -39.8 1.1 -39.6 1.1 -39.05 0.4 -37.7 -0.65 -36.35 -2.65 -33.55 -4.15 -33.55 -5.25 -33.55 -6.3 -36.8 -7 -38.8 -7.05 -40.3 -7.3 -40.65 -7.3 -40.7 -7.3 -41.15 -7.05 -41.65
L -7 -41.7
Q -7.15 -41.1 -7.05 -40.3 -6.75 -39.75 -5.9 -38.7 -4.4 -37 -4.15 -37 -3.75 -37 -1.7 -38.45 0.1 -39.55 0.75 -40.2
M -25.4 -50.3
Q -25 -50.1 -25 -49.8 -25.05 -49.4 -25.4 -49.4 -25.65 -49.4 -25.75 -49.4 -25.85 -49.4 -25.85 -49.8 -25.85 -50.15 -25.65 -50.25 -25.45 -50.3 -25.4 -50.3
M -15.25 -51
Q -15.3 -51.25 -15.3 -51.6 -15.3 -52.55 -14.3 -52.7 -13.25 -52.9 -13.25 -51.8 -13.25 -51.45 -13.4 -51.1 -13.75 -50.5 -14.45 -50.5 -14.75 -50.5 -14.9 -50.55 -15.05 -50.7 -15.2 -50.75
L -15.25 -51
M -3 -57.5
Q -3 -58.45 -2.05 -58.45 -1.15 -58.45 -1.15 -57.5 -1.15 -56.45 -2.1 -56.45 -2.7 -56.45 -2.9 -56.9 -3 -57.05 -3 -57.5
M -3.75 -50.15
Q -3.65 -50.15 -3.65 -49.8 -3.65 -49.6 -4.35 -49.15 -4.55 -49.2 -4.7 -49.2 -4.75 -49.3 -4.75 -49.6 -4.75 -50.1 -4.5 -50.25 -4.15 -50.3 -3.8 -50.1
L -3.75 -50.15
M -2.1 -47.5
Q -1.6 -47.15 -1.6 -46.35
L -1.85 -46.3
Q -1.9 -46.15 -2.1 -46.15
L -2.35 -46.3
Q -2.5 -46.4 -2.5 -46.75 -2.5 -47.35 -2.1 -47.5
M -16.6 -48.05
Q -16.45 -48.05 -16 -48.05
L -15.85 -48.05
Q -15.8 -48.05 -15.8 -47.7 -15.8 -47.65 -16.05 -47.25 -16.45 -46.9 -16.7 -46.8 -16.9 -46.9 -17 -46.95 -17.15 -46.95 -17.15 -47.35 -17.15 -47.9 -16.6 -48.05
M -19.9 -48.4
Q -19.9 -48.05 -20 -47.7 -20.3 -47.3 -20.75 -47.3 -21.15 -47.3 -21.3 -47.35 -21.45 -47.45 -21.65 -47.55 -21.7 -47.85 -21.7 -48.4 -21.7 -49.6 -20.75 -49.6 -19.9 -49.6 -19.9 -48.4
M -23.75 -43.5
Q -23.4 -44.05 -23.1 -44.05 -22.75 -43.95 -22.65 -43.6 -22.65 -43.5 -22.95 -43.35 -23.2 -43.15 -23.35 -43.15 -23.6 -43.3 -23.75 -43.5
M -26.85 -45.25
Q -27.55 -45.25 -27.85 -45.65 -27.9 -45.85 -27.9 -46.2 -27.9 -47.15 -26.85 -47.05 -25.85 -46.95 -25.85 -46.2 -25.85 -45.25 -26.85 -45.25
M -8.65 -23.6
Q -8.65 -24.05 -7.5 -24.5 -6.3 -24.8 -4.7 -24.8 -3 -24.8 -1.85 -24.5 -0.65 -24.05 -0.65 -23.6 -0.65 -23.1 -1.85 -22.7 -3 -22.35 -4.7 -22.35 -6.3 -22.35 -7.5 -22.7 -8.65 -23.1 -8.65 -23.6
M -16 -32.1
Q -3.95 -28 9.5 -32.1 -3.95 -28 -16 -32.1 Z"/>

<path fill="#CC6600" stroke="none" d="
M -34.2 -86.95
Q -34.45 -87.55 -34.6 -88.35 -35.6 -85.6 -36.25 -83.05 -34.2 -84.15 -32.2 -85.3 -33.5 -85.65 -34.2 -86.95 Z"/>

<path fill="#FFCCCC" stroke="none" d="
M -27.85 -45.65
Q -27.55 -45.25 -26.85 -45.25 -25.85 -45.25 -25.85 -46.2 -25.85 -46.95 -26.85 -47.05 -27.9 -47.15 -27.9 -46.2 -27.9 -45.85 -27.85 -45.65
M -20 -47.7
Q -19.9 -48.05 -19.9 -48.4 -19.9 -49.6 -20.75 -49.6 -21.7 -49.6 -21.7 -48.4 -21.7 -47.85 -21.65 -47.55 -21.45 -47.45 -21.3 -47.35 -21.15 -47.3 -20.75 -47.3 -20.3 -47.3 -20 -47.7
M -2.05 -58.45
Q -3 -58.45 -3 -57.5 -3 -57.05 -2.9 -56.9 -2.7 -56.45 -2.1 -56.45 -1.15 -56.45 -1.15 -57.5 -1.15 -58.45 -2.05 -58.45
M -15.3 -51.6
Q -15.3 -51.25 -15.25 -51
L -15.2 -50.75
Q -15.05 -50.7 -14.9 -50.55 -14.75 -50.5 -14.45 -50.5 -13.75 -50.5 -13.4 -51.1 -13.25 -51.45 -13.25 -51.8 -13.25 -52.9 -14.3 -52.7 -15.3 -52.55 -15.3 -51.6
M 3.1 -47.5
Q 3.35 -47.05 4.15 -47.05 5.35 -47.05 5.35 -48 5.35 -48.8 4.15 -48.85 3 -49 3 -48.05 3 -47.7 3.1 -47.5
M 18.55 -49.2
Q 18.55 -48.85 18.6 -48.65 18.7 -48.55 18.7 -48.45 18.8 -48.4 19 -48.25 19.15 -48.2 19.5 -48.2 19.9 -48.2 20.15 -48.55 20.4 -48.8 20.4 -49.15 20.4 -50.05 19.5 -49.95 18.55 -49.9 18.55 -49.2
M 12.15 -49.9
Q 12.15 -50.7 11.1 -50.75 10.1 -50.75 10.1 -49.9
L 10.25 -49.35
Q 10.5 -48.85 11.1 -48.85 12.15 -48.85 12.15 -49.9 Z"/>

<path fill="#FED8B4" stroke="none" d="
M -23.1 -44.05
Q -23.4 -44.05 -23.75 -43.5 -23.6 -43.3 -23.35 -43.15 -23.2 -43.15 -22.95 -43.35 -22.65 -43.5 -22.65 -43.6 -22.75 -43.95 -23.1 -44.05
M -16 -48.05
Q -16.45 -48.05 -16.6 -48.05 -17.15 -47.9 -17.15 -47.35 -17.15 -46.95 -17 -46.95 -16.9 -46.9 -16.7 -46.8 -16.45 -46.9 -16.05 -47.25 -15.8 -47.65 -15.8 -47.7 -15.8 -48.05 -15.85 -48.05
L -16 -48.05
M -1.6 -46.35
Q -1.6 -47.15 -2.1 -47.5 -2.5 -47.35 -2.5 -46.75 -2.5 -46.4 -2.35 -46.3
L -2.1 -46.15
Q -1.9 -46.15 -1.85 -46.3
L -1.6 -46.35
M -3.65 -49.8
Q -3.65 -50.15 -3.75 -50.15
L -3.8 -50.1
Q -4.15 -50.3 -4.5 -50.25 -4.75 -50.1 -4.75 -49.6 -4.75 -49.3 -4.7 -49.2 -4.55 -49.2 -4.35 -49.15 -3.65 -49.6 -3.65 -49.8
M -25 -49.8
Q -25 -50.1 -25.4 -50.3 -25.45 -50.3 -25.65 -50.25 -25.85 -50.15 -25.85 -49.8 -25.85 -49.4 -25.75 -49.4 -25.65 -49.4 -25.4 -49.4 -25.05 -49.4 -25 -49.8
M 10.75 -44.5
Q 10.7 -44.85 10.3 -45 9.8 -45 9.7 -44.9 9.4 -44.9 9.4 -44.5 9.4 -44.15 9.5 -44.15 9.55 -44.15 9.6 -44.25
L 10.1 -44.05
Q 10.5 -44.05 10.65 -44.25 10.7 -44.3 10.75 -44.5
M 15.35 -48
Q 15.7 -48.05 15.8 -48.4 15.7 -48.75 15.35 -48.85 15.15 -48.75 15 -48.55 14.85 -48.4 14.85 -48.25 15.05 -48.05 15.35 -48
M 21.45 -42.4
L 21.35 -42.4
Q 20.9 -42.4 20.4 -42.25 19.75 -42.2 19.5 -41.9 19.5 -41.8 19.65 -41.6 19.7 -41.3 19.7 -41.25
L 20.3 -41.1
Q 21.55 -41.35 21.55 -42 21.55 -42.4 21.45 -42.4 Z"/>
</g>

<path id="bt_01_0_Layer0_0_MEMBER_0_MEMBER_0_1_STROKES" stroke="#FF6666" stroke-width="1" stroke-linejoin="round" stroke-linecap="round" fill="none" d="
M -16 -32.1
Q -3.95 -28 9.5 -32.1"/>
</defs>

<g id="btn_01" transform="matrix( -1, 0, 0, 1, 64.5,112.1) ">
<g transform="matrix( 1, 0, 0, 1, 0,0) ">
<use xlink:href="#bt_01_0_Layer0_0_FILL"/>
</g>

<g transform="matrix( 1, 0, 0, 1, 0,0) ">
<use xlink:href="#bt_01_0_Layer0_0_MEMBER_0_FILL"/>
</g>

<g transform="matrix( 1, 0, 0, 1, 0,0) ">
<use xlink:href="#bt_01_0_Layer0_0_MEMBER_0_MEMBER_0_FILL"/>

<use xlink:href="#bt_01_0_Layer0_0_MEMBER_0_MEMBER_0_1_STROKES"/>
</g>
</g>
</svg>
