
<svg xmlns="http://www.w3.org/2000/svg" version="1.1" xmlns:xlink="http://www.w3.org/1999/xlink" preserveAspectRatio="none" x="0px" y="0px" width="214px" height="220px" viewBox="0 0 214 220">
<defs>
<radialGradient id="Gradient_1" gradientUnits="userSpaceOnUse" cx="0" cy="0" r="184.75" fx="0" fy="0" gradientTransform="matrix( 1, 0, 0, 1, 607.95,68) " spreadMethod="pad">
<stop  offset="0%" stop-color="#D2E1C3"/>

<stop  offset="22.352941176470587%" stop-color="#B0CB96"/>

<stop  offset="74.11764705882354%" stop-color="#54990F"/>

<stop  offset="100%" stop-color="#366209"/>
</radialGradient>

<g id="Layer0_0_MEMBER_0_FILL">
<path fill="#3F3F3F" stroke="none" d="
M 423.45 171.2
Q 423.45 129.65 394.1 100.3 364.75 70.95 323.2 70.95 281.65 70.95 252.3 100.3 222.95 129.65 222.95 171.2 222.95 212.75 252.3 242.1 281.65 271.45 323.2 271.45 364.75 271.45 394.1 242.1 423.45 212.75 423.45 171.2 Z"/>
</g>

<g id="Layer0_0_MEMBER_1_FILL">
<path fill="#666666" stroke="none" d="
M 423.45 161.2
Q 423.45 119.65 394.1 90.3 364.75 60.95 323.2 60.95 281.65 60.95 252.3 90.3 222.95 119.65 222.95 161.2 222.95 202.75 252.3 232.1 281.65 261.45 323.2 261.45 364.75 261.45 394.1 232.1 423.45 202.75 423.45 161.2 Z"/>
</g>

<g id="Layer0_0_MEMBER_2_FILL">
<path fill="#333333" stroke="none" d="
M 384.95 108.45
Q 360.45 83.95 326.3 83 324.85 82.95 323.4 82.95 287.35 82.95 261.9 108.45 236.4 133.9 236.4 169.95 236.4 174.6 236.85 179.1 237.85 190.05 241.45 199.9 244.85 209.4 250.65 217.9 255.4 225.05 261.9 231.5 287.35 257 323.4 257 359.45 257 384.95 231.5 410.45 206 410.45 169.95 410.45 133.9 384.95 108.45 Z"/>
</g>

<g id="Layer0_0_MEMBER_3_FILL">
<path fill="url(#Gradient_1)" stroke="none" d="
M 728.95 132.95
Q 728.95 83.65 694.1 48.8 660.6 15.3 613.85 14 611.9 13.95 609.95 13.95 560.65 13.95 525.8 48.8 490.95 83.65 490.95 132.95 490.95 139.3232421875 491.5 145.45 492.9580078125 160.3939453125 497.85 173.9 502.50234375 186.8505859375 510.35 198.5 516.9564453125 208.2564453125 525.8 217.1 560.65 251.95 609.95 251.95 659.25 251.95 694.1 217.1 728.95 182.25 728.95 132.95 Z"/>
</g>

<g id="Layer0_0_MEMBER_4_FILL">
<path fill="#333333" stroke="none" d="
M 337.4 130.75
Q 345.5 133.45 352.05 139.95 363.2 151.05 363.2 166.85 363.2 182.55 352.05 193.7 340.9 204.85 325.2 204.85 309.4 204.85 298.3 193.7 287.15 182.55 287.15 166.85 287.15 151.05 298.3 139.95 303.65 134.65 310.05 131.8 316.8 124.65 310.05 119.35 298.9 122.8 290.05 131.7 280.95 140.75 277.55 152.2 275.5 159.1 275.5 166.85 275.5 174.55 277.55 181.5 280.95 192.85 290.05 201.95 295.75 207.65 302.3 211.1 312.65 216.55 325.2 216.55 337.75 216.55 348.05 211.1 354.6 207.65 360.3 201.95 374.9 187.35 374.9 166.85 374.9 146.25 360.3 131.7 350.3 121.65 337.4 118.55 331.6 124.65 337.4 130.75 Z"/>
</g>

<g id="Layer0_0_MEMBER_4_MEMBER_0_FILL">
<path fill="#333333" stroke="none" d="
M 632.45 -125
Q 627.7 -125 624.3 -121.65 620.95 -118.25 620.95 -113.5
L 620.95 5.5
Q 620.95 10.25 624.3 13.6 627.7 17 632.45 17 637.2 17 640.55 13.6 643.95 10.25 643.95 5.5
L 643.95 -113.5
Q 643.95 -118.25 640.55 -121.65 637.2 -125 632.45 -125 Z"/>
</g>
</defs>

<g transform="matrix( 1, 0, 0, 1, -215,-59.95) ">
<use xlink:href="#Layer0_0_MEMBER_0_FILL"/>
</g>

<g transform="matrix( 1, 0, 0, 1, -215,-55.95) ">
<use xlink:href="#Layer0_0_MEMBER_1_FILL"/>
</g>

<g transform="matrix( 1, 0, 0, 1, -215,-55.95) ">
<use xlink:href="#Layer0_0_MEMBER_2_FILL"/>
</g>

<g transform="matrix( 0.7312469482421875, 0, 0, 0.7312469482421875, -337.6,6.8) ">
<use xlink:href="#Layer0_0_MEMBER_3_FILL"/>
</g>

<g transform="matrix( 1, 0, 0, 1, -216,-60.95) ">
<use xlink:href="#Layer0_0_MEMBER_4_FILL"/>
</g>

<g transform="matrix( 0.51629638671875, 0, 0, 0.40814208984375, -218.85,85.95) ">
<use xlink:href="#Layer0_0_MEMBER_4_MEMBER_0_FILL"/>
</g>
</svg>
