
<svg xmlns="http://www.w3.org/2000/svg" version="1.1" xmlns:xlink="http://www.w3.org/1999/xlink" preserveAspectRatio="none" x="0px" y="0px" width="788px" height="316px" viewBox="0 0 788 316">
<defs>
<g id="Layer0_0_FILL">
<path fill="#FF6600" stroke="none" d="
M 788 316
L 788 0 0 0 0 316 788 316 Z"/>
</g>

<g id="Layer0_1_FILL">
<path fill="#FFCC00" fill-opacity="0.2196078431372549" stroke="none" d="
M 834.7 336.85
L 834.7 243.9 -54 243.9 -54 336.85 834.7 336.85 Z"/>
</g>

<g id="Layer0_2_FILL">
<path fill="#FFCC00" fill-opacity="0.2196078431372549" stroke="none" d="
M 834.7 336.85
L 834.7 243.9 -54 243.9 -54 336.85 834.7 336.85 Z"/>
</g>

<g id="Layer0_3_FILL">
<path fill="#FFCC00" fill-opacity="0.2196078431372549" stroke="none" d="
M 834.7 336.85
L 834.7 243.9 -54 243.9 -54 336.85 834.7 336.85 Z"/>
</g>

<g id="Layer0_4_FILL">
<path fill="#FFCC00" fill-opacity="0.2196078431372549" stroke="none" d="
M 834.7 336.85
L 834.7 243.9 -54 243.9 -54 336.85 834.7 336.85 Z"/>
</g>

<g id="Layer0_5_FILL">
<path fill="#FFCC00" fill-opacity="0.2196078431372549" stroke="none" d="
M 372.85 498.8
L 366.85 498.8 366.85 503.8 372.85 503.8 372.85 498.8 Z"/>
</g>

<g id="Layer0_6_MEMBER_0_FILL">
<path fill="#4A2500" stroke="none" d="
M 297 132.6
Q 286.95 136.15 295.05 145.3
L 312.6 161.45 313.35 162.1
Q 314.25 161.2 315.25 160.35 318.7 157.45 322.9 156.75 323.3 156.6 323.75 156.55 311.48359375 148.141796875 302.9 139.25 299.69296875 135.973046875 297 132.6 Z"/>

<path fill="#663300" stroke="none" d="
M 339.55 166.65
Q 333.85 159.8 326.55 157.45 324.65 156.9 322.9 156.75 318.7 157.45 315.25 160.35 314.25 161.2 313.35 162.1
L 312.6 161.45
Q 312.3 161.8 312.05 162.25 309.85 165.55 308.95 170.55 307.55 178.35 308.85 180.95 310.15 183.55 313 184.95 313.7 186.95 314.7 188.3 315.65 189.5 317.6 189.65 319.45 189.7 321.1 190.55 325.7 192.85 330.6 194.15 335.2 195.3 338.65 194.3 340.8 193.7 342.5 192.3 346.95 188.55 346.1 181 345.25 173.55 339.55 166.65 Z"/>
</g>

<g id="Layer0_6_MEMBER_0_MEMBER_0_FILL">
<path fill="#663300" stroke="none" d="
M 563.9 291
Q 561.85 288.95 558.95 288.95 556.05 288.95 554 291 551.95 293.05 551.95 295.95
L 551.95 326.95
Q 551.95 329.85 554 331.9 556.05 333.95 558.95 333.95 561.85 333.95 563.9 331.9 565.95 329.85 565.95 326.95
L 565.95 295.95
Q 565.95 293.05 563.9 291 Z"/>
</g>

<g id="Layer0_6_MEMBER_0_MEMBER_1_FILL">
<path fill="#663300" stroke="none" d="
M 579 291.85
Q 576.1 288.95 571.95 288.95
L 566.95 288.95
Q 562.8 288.95 559.85 291.85 556.95 294.8 556.95 298.95 556.95 303.1 559.85 306 562.8 308.95 566.95 308.95
L 571.95 308.95
Q 576.1 308.95 579 306 581.95 303.1 581.95 298.95 581.95 294.8 579 291.85 Z"/>
</g>

<g id="Layer0_6_MEMBER_1_MEMBER_0_MEMBER_0_FILL">
<path fill="#663300" stroke="none" d="
M 625.85 -187.95
Q 622.8 -191 618.45 -191 614.1 -191 611 -187.95 607.95 -184.85 607.95 -180.5
L 607.95 -43.5
Q 607.95 -39.15 611 -36.1 614.1 -33 618.45 -33 622.8 -33 625.85 -36.1 628.95 -39.15 628.95 -43.5
L 628.95 -180.5
Q 628.95 -184.85 625.85 -187.95 Z"/>
</g>

<g id="Layer0_6_MEMBER_1_MEMBER_0_MEMBER_1_FILL">
<path fill="#663300" stroke="none" d="
M 580.85 9.05
Q 577.8 6 573.45 6 569.1 6 566 9.05 562.95 12.15 562.95 16.5
L 562.95 124.45
Q 562.95 128.8 566 131.85 569.1 134.95 573.45 134.95 577.8 134.95 580.85 131.85 583.95 128.8 583.95 124.45
L 583.95 16.5
Q 583.95 12.15 580.85 9.05 Z"/>
</g>

<g id="Layer0_6_MEMBER_1_MEMBER_0_MEMBER_2_FILL">
<path fill="#000000" stroke="none" d="
M 253.95 261.4
L 253.95 294.4 305.45 300.4 304.95 263.9
Q 275.8591796875 265.7240234375 253.95 261.4 Z"/>
</g>

<g id="Layer0_6_MEMBER_1_MEMBER_1_FILL">
<path fill="#CC3333" stroke="none" d="
M 279.5 254.55
Q 267.1 254.55 258.3 263.3 249.55 272.1 249.55 284.5 231.2 413.55 249.55 542.55 249.55 554.95 258.3 563.7 267.1 572.5 279.5 572.5
L 279.55 572.5
Q 291.95 572.5 300.7 563.7 309.5 554.95 309.5 542.55 293.4 410.3 309.5 284.5 309.5 272.1 300.7 263.3 291.95 254.55 279.55 254.55
L 279.5 254.55 Z"/>
</g>

<g id="Layer0_6_MEMBER_1_MEMBER_2_MEMBER_0_FILL">
<path fill="#000000" stroke="none" d="
M 256.95 290.9
Q 262.45 285.95 262.45 278.9 262.45 271.85 256.95 266.85 251.45 261.9 243.7 261.9 235.95 261.9 230.45 266.85 224.95 271.85 224.95 278.9 224.95 285.95 230.45 290.9 235.95 295.9 243.7 295.9 251.45 295.9 256.95 290.9 Z"/>
</g>

<g id="Layer0_6_MEMBER_1_MEMBER_2_MEMBER_1_FILL">
<path fill="#663300" stroke="none" d="
M 580.85 41.05
Q 577.8 38 573.45 38 569.1 38 566 41.05 562.95 44.15 562.95 48.5
L 562.95 105.5
Q 562.95 109.85 566 112.9 569.1 116 573.45 116 577.8 116 580.85 112.9 583.95 109.85 583.95 105.5
L 583.95 48.5
Q 583.95 44.15 580.85 41.05 Z"/>
</g>

<g id="Layer0_6_MEMBER_1_MEMBER_2_MEMBER_2_FILL">
<path fill="#000000" stroke="none" d="
M 295.4 -41.5
Q 259.85 -77.05 209.5 -77.05 159.15 -77.05 123.55 -41.5 88 -5.9 88 44.45 88 94.8 123.55 130.35 159.15 165.95 209.5 165.95 259.85 165.95 295.4 130.35 331 94.8 331 44.45 331 -5.9 295.4 -41.5 Z"/>
</g>

<g id="Layer0_6_MEMBER_1_MEMBER_2_MEMBER_3_FILL">
<path fill="#000000" stroke="none" d="
M 303 170.5
L 312.75 171.45
Q 311.5056640625 154.062109375 301.3 140.35
L 303 170.5
M 190.15 171
L 200.05 173.15 199.2 143.75
Q 191.3669921875 156.00078125 190.15 171
M 282.2 123.05
Q 268.5162109375 115 251.45 115 232.9884765625 115 218.45 124.4
L 282.2 123.05 Z"/>

<path fill="#3F1F00" stroke="none" d="
M 218.45 124.4
Q 212.918359375 128.031640625 207.95 133 202.8638671875 138.0861328125 199.2 143.75
L 200.05 173.15 190.15 171
Q 189.95 173.705078125 189.95 176.5 189.95 198.5552734375 203.4 215 205.518359375 217.568359375 207.95 220 225.95 238 251.45 238 276.95 238 294.95 220 297.381640625 217.568359375 299.45 215 312.95 198.5552734375 312.95 176.5 312.95 173.9537109375 312.75 171.45
L 303 170.5 301.3 140.35
Q 298.484765625 136.534765625 294.95 133 288.996875 127.046875 282.2 123.05
L 218.45 124.4
M 213.2 138.55
Q 217.85 133.9 223.05 130.5
L 282.75 129.25
Q 289.1 132.95 294.65 138.55 296.5205078125 140.392578125 298.15 142.3
L 299.7 170.15 302 170.35 302.2 173.65 311.35 174.55 311.35 174.6
Q 311.5 176.85 311.5 179.25 311.5 199.9 298.9 215.3 296.95 217.7 294.65 220 277.8 236.85 253.95 236.85 230.05 236.85 213.2 220 210.9 217.7 209 215.3 196.35 199.9 196.35 179.25 196.35 177.3 196.5 175.35 196.55 174.7 196.6 174.1
L 205.8 176.1 205.05 148.65
Q 208.45 143.3 213.2 138.55 Z"/>

<path fill="#663300" stroke="none" d="
M 223.05 130.5
Q 217.85 133.9 213.2 138.55 208.45 143.3 205.05 148.65
L 205.8 176.1 196.6 174.1
Q 196.55 174.7 196.5 175.35 196.35 177.3 196.35 179.25 196.35 199.9 209 215.3 210.9 217.7 213.2 220 230.05 236.85 253.95 236.85 277.8 236.85 294.65 220 296.95 217.7 298.9 215.3 311.5 199.9 311.5 179.25 311.5 176.85 311.35 174.6
L 311.35 174.55 302.2 173.65 302 170.35 299.7 170.15 298.15 142.3
Q 296.5205078125 140.392578125 294.65 138.55 289.1 132.95 282.75 129.25
L 223.05 130.5 Z"/>
</g>

<g id="Layer0_6_MEMBER_1_MEMBER_2_MEMBER_4_FILL">
<path fill="#000000" stroke="none" d="
M -180 -159
Q -180 -154.45 -176.8 -151.25 -173.55 -148 -169 -148 -164.45 -148 -161.25 -151.25 -158 -154.45 -158 -159 -158 -163.55 -161.25 -166.8 -164.45 -170 -169 -170 -173.55 -170 -176.8 -166.8 -180 -163.55 -180 -159 Z"/>
</g>

<g id="Layer0_6_MEMBER_1_MEMBER_2_MEMBER_5_FILL">
<path fill="#000000" stroke="none" d="
M -223.65 -112.65
Q -227 -109.25 -227 -104.5 -227 -99.75 -223.65 -96.4 -220.25 -93 -215.5 -93 -210.75 -93 -207.4 -96.4 -204 -99.75 -204 -104.5 -204 -109.25 -207.4 -112.65 -210.75 -116 -215.5 -116 -220.25 -116 -223.65 -112.65 Z"/>
</g>

<g id="Layer0_6_MEMBER_1_MEMBER_2_MEMBER_6_FILL">
<path fill="#FFFFFF" stroke="none" d="
M 228.9 165
Q 229.85 163.6 229.85 162 229.85 159.6 228.3 158.2 226.9 156.95 224.85 156.95 222.8 156.95 221.4 158.2 219.85 159.6 219.85 162 219.85 161.7 220.4 164.25 221.6 167 224.85 167 227.55 167 228.9 165 Z"/>
</g>

<g id="Layer0_6_MEMBER_1_MEMBER_2_MEMBER_7_FILL">
<path fill="#FFFFFF" stroke="none" d="
M 278.4 163.25
Q 279.6 166 282.85 166 285.45 166 286.85 164 287.85 162.55 287.85 161 287.85 158.6 286.3 157.2 284.9 155.95 282.85 155.95 280.8 155.95 279.4 157.2 277.85 158.6 277.85 161 277.85 160.7 278.4 163.25 Z"/>
</g>

<g id="Layer0_6_MEMBER_1_MEMBER_2_MEMBER_8_FILL">
<path fill="#FFFFFF" stroke="none" d="
M 264.95 210.15
L 264.95 206.25 258.3 206.3 256.75 206.45
Q 256.7 207.8 256 208.15 255.35 207.95 255.25 206.55
L 249.5 207
Q 249.45 208.35 248.75 208.65 248.4 208.3 248.2 207.6 248.1 207.35 248.05 207.15
L 245 207.35
Q 244.9 208.65 244.25 208.9 243.9 208.55 243.7 207.85 243.65 207.65 243.6 207.45
L 236.65 208
Q 237.5 208.4 238.35 208.75 244.5 211.4 252.5 211.65 257 211.75 260.95 211.1 263.05 210.8 264.95 210.15
M 235.35 192.8
Q 235.25 192.9 235.15 192.95 245.15 194.4 251.45 194.55 258.3 194.6 264.95 193.2
L 264.95 193
Q 258.9 190.45 251 190.15 250.15 190.2 249.35 190.2 243.2 190.15 238.35 191.7 236.8 192.15 235.35 192.8 Z"/>

<path fill="#000000" stroke="none" d="
M 251.45 194.55
L 251.65 194.9
Q 253.25 195.6 254.65 197.25 258.3 201.8 258.3 206.3
L 264.95 206.25 264.95 193.2
Q 258.3 194.6 251.45 194.55 Z"/>

<path fill="#CC0000" stroke="none" d="
M 241.15 196.8
Q 240.6 197 240.1 197.25 231.9 201.05 234.65 206.9 235.45 207.35 236.4 207.8 236.4 207.85 236.45 207.85 236.6 207.95 236.65 208
L 243.6 207.45
Q 243.65 207.65 243.7 207.85 243.9 208.55 244.25 208.9 244.9 208.65 245 207.35
L 248.05 207.15
Q 248.1 207.35 248.2 207.6 248.4 208.3 248.75 208.65 249.45 208.35 249.5 207
L 255.25 206.55
Q 255.35 207.95 256 208.15 256.7 207.8 256.75 206.45
L 258.3 206.3
Q 258.3 201.8 254.65 197.25 253.25 195.6 251.65 194.9 247.2 194.7 244 195.75
L 246.25 201.25 241.15 196.8 Z"/>

<path fill="#660000" stroke="none" d="
M 240.1 197.25
Q 240.6 197 241.15 196.8
L 246.25 201.25 244 195.75
Q 247.2 194.7 251.65 194.9
L 251.45 194.55
Q 245.15 194.4 235.15 192.95 231.3 194.75 230.05 197.25 229.3 198.65 229.45 200.25 229.7 203.9 234.65 206.9 231.9 201.05 240.1 197.25 Z"/>
</g>

<g id="Layer0_6_MEMBER_1_MEMBER_2_MEMBER_9_FILL">
<path fill="#FFFFFF" stroke="none" d="
M 223.5 172.5
Q 224 171.8 224 170.9 224 168.45 221.5 168.45 219 168.45 219 170.9 219 170.75 219.25 172.05 219.85 173.5 221.5 173.5 222.8 173.5 223.5 172.5 Z"/>
</g>

<g id="Layer0_6_MEMBER_1_MEMBER_2_MEMBER_10_FILL">
<path fill="#FFFFFF" stroke="none" d="
M 281.5 171.5
Q 282 170.75 282 169.9 282 167.45 279.5 167.45 277 167.45 277 169.9 277 169.75 277.25 171.05 277.85 172.5 279.5 172.5 280.85 172.5 281.5 171.5 Z"/>
</g>

<g id="Layer0_6_MEMBER_1_MEMBER_3_MEMBER_0_FILL">
<path fill="#663300" stroke="none" d="
M 625.85 -187.95
Q 622.8 -191 618.45 -191 614.1 -191 611 -187.95 607.95 -184.85 607.95 -180.5
L 607.95 -43.5
Q 607.95 -39.15 611 -36.1 614.1 -33 618.45 -33 622.8 -33 625.85 -36.1 628.95 -39.15 628.95 -43.5
L 628.95 -180.5
Q 628.95 -184.85 625.85 -187.95 Z"/>
</g>

<g id="Layer0_6_MEMBER_1_MEMBER_3_MEMBER_1_FILL">
<path fill="#663300" stroke="none" d="
M 580.85 9.05
Q 577.8 6 573.45 6 569.1 6 566 9.05 562.95 12.15 562.95 16.5
L 562.95 124.45
Q 562.95 128.8 566 131.85 569.1 134.95 573.45 134.95 577.8 134.95 580.85 131.85 583.95 128.8 583.95 124.45
L 583.95 16.5
Q 583.95 12.15 580.85 9.05 Z"/>
</g>

<g id="Layer0_6_MEMBER_1_MEMBER_3_MEMBER_2_FILL">
<path fill="#000000" stroke="none" d="
M 217.5 281
Q 209.2501953125 264.4673828125 201 271.35 191.4416015625 271.21484375 183.7 331.05
L 220.15 331.85
Q 219.4 302.75 217.5 281 Z"/>
</g>

<g id="Layer0_6_MEMBER_1_MEMBER_4_FILL">
<path fill="#000000" stroke="none" d="
M 287.4 142.95
L 287.4 137.45
Q 271.65 121.95 253.9 137.45
L 253.9 142.95
Q 270.65 129.45 287.4 142.95 Z"/>
</g>

<g id="Layer0_6_MEMBER_1_MEMBER_5_FILL">
<path fill="#000000" stroke="none" d="
M 287.4 142.95
L 287.4 137.45
Q 271.65 121.95 253.9 137.45
L 253.9 142.95
Q 270.65 129.45 287.4 142.95 Z"/>
</g>

<g id="Layer0_6_MEMBER_2_FILL">
<path fill="#E5E5E5" stroke="none" d="
M 166.35 137.55
L 166.35 113.75
Q 166.35 85.85 147.35 66.15 128.45 46.45 101.55 46.45
L 87.1 46.45
Q 60.2 46.45 41.25 66.15 22.3 85.85 22.3 113.75
L 22.3 158.65
Q 22.3 186.5 41.25 206.25 60.2 225.95 87.1 225.95
L 101.55 225.95
Q 128.45 225.95 147.35 206.25 166.35 186.5 166.35 158.65
L 166.35 150.5 217.05 139.3 166.35 137.55 Z"/>
</g>

<g id="Layer0_7_MEMBER_0_MEMBER_0_FILL">
<path fill="#FFFFFF" stroke="none" d="
M 471.75 152.4
L 471.75 6.05 235.4 6.05 235.4 152.4 471.75 152.4 Z"/>
</g>

<g id="Layer0_8_MEMBER_0_MEMBER_0_FILL">
<path fill="#FFFFFF" stroke="none" d="
M 513.7 305.25
L 513.7 158.9 277.35 158.9 277.35 305.25 513.7 305.25 Z"/>
</g>

<g id="Layer0_9_MEMBER_0_FILL">
<path fill="#FFCC00" stroke="none" d="
M 606.8 190.75
Q 601.1 184.9 592.95 184.85 584.8 184.8 579 190.55 573.2 196.25 573.15 204.3
L 560.35 375.6
Q 571.8 381.75 577.45 387.5 583.15 393.3 591.3 393.4 599.4958984375 393.4537109375 618.35 387.25 637.2123046875 381.08828125 628.7 375.9 617.45 288.9 612.5 204.65 612.55 196.5 606.8 190.75 Z"/>
</g>

<g id="Layer0_9_MEMBER_1_MEMBER_0_MEMBER_0_FILL">
<path fill="#9C4E00" stroke="none" d="
M 625.85 -187.95
Q 622.8 -191 618.45 -191 614.1 -191 611 -187.95 607.95 -184.85 607.95 -180.5
L 607.95 -43.5
Q 607.95 -39.15 611 -36.1 614.1 -33 618.45 -33 622.8 -33 625.85 -36.1 628.95 -39.15 628.95 -43.5
L 628.95 -180.5
Q 628.95 -184.85 625.85 -187.95 Z"/>
</g>

<g id="Layer0_9_MEMBER_1_MEMBER_0_MEMBER_1_FILL">
<path fill="#9C4E00" stroke="none" d="
M 580.85 9.05
Q 577.8 6 573.45 6 569.1 6 566 9.05 562.95 12.15 562.95 16.5
L 562.95 124.45
Q 562.95 128.8 566 131.85 569.1 134.95 573.45 134.95 577.8 134.95 580.85 131.85 583.95 128.8 583.95 124.45
L 583.95 16.5
Q 583.95 12.15 580.85 9.05 Z"/>
</g>

<g id="Layer0_9_MEMBER_1_MEMBER_0_MEMBER_2_FILL">
<path fill="#FFCC00" stroke="none" d="
M 621.6 230.1
L 634.3 211.85
Q 615.6970703125 188.9916015625 604.9 187.6
L 598.25 208.95 621.6 230.1 Z"/>
</g>

<g id="Layer0_9_MEMBER_1_MEMBER_1_MEMBER_0_FILL">
<path fill="#9C4E00" stroke="none" d="
M 680.75 178
Q 673.6 178 668.55 180.35 663.5 182.7 663.5 186 663.5 189.3 668.55 191.65 673.6056640625 194.0037109375 683.3 193.25 693.0330078125 192.5388671875 696.45 190.65 699.8669921875 188.7611328125 698.9 185.7 697.9943359375 182.6962890625 692.95 180.35 687.9 178 680.75 178 Z"/>
</g>

<g id="Layer0_9_MEMBER_1_MEMBER_1_MEMBER_1_FILL">
<path fill="#9C4E00" stroke="none" d="
M 698.45 175.75
Q 698.45 169.65 697.4 165.3 696.4 161 694.95 161 693.5 161 692.45 165.3 691.45 169.65 691.45 175.75 691.45 181.85 692.45 186.15 693.5 190.5 694.95 190.5 696.4 190.5 697.4 186.15 698.45 181.85 698.45 175.75 Z"/>
</g>

<g id="Layer0_9_MEMBER_1_MEMBER_1_MEMBER_2_FILL">
<path fill="#9C4E00" stroke="none" d="
M 698.45 175.75
Q 698.45 169.65 697.4 165.3 696.4 161 694.95 161 693.5 161 692.45 165.3 691.45 169.65 691.45 175.75 691.45 181.85 692.45 186.15 693.5 190.5 694.95 190.5 696.4 190.5 697.4 186.15 698.45 181.85 698.45 175.75 Z"/>
</g>

<g id="Layer0_9_MEMBER_1_MEMBER_1_MEMBER_3_FILL">
<path fill="#9C4E00" stroke="none" d="
M 678 180.1
Q 682.2 175.65 684.35 171.75 686.6 167.9 685.55 166.95 684.45 165.95 680.75 168.35 677.0947265625 170.9 671.6 175.3 666.115234375 179.75 665 183.6 663.8845703125 187.5 665.15 188.45 666.405078125 189.45 670.1 186.95 673.85 184.5 678 180.1 Z"/>
</g>

<g id="Layer0_9_MEMBER_1_MEMBER_1_MEMBER_4_FILL">
<path fill="#9C4E00" stroke="none" d="
M 698.45 175.75
Q 698.45 169.65 697.4 165.3 696.4 161 694.95 161 693.5 161 692.45 165.3 691.45 169.65 691.45 175.75 691.45 181.85 692.45 186.15 693.5 190.5 694.95 190.5 696.4 190.5 697.4 186.15 698.45 181.85 698.45 175.75 Z"/>
</g>

<g id="Layer0_9_MEMBER_2_MEMBER_0_FILL">
<path fill="#333333" stroke="none" d="
M 558.15 171
L 557.95 161.55 561.4 168.65
Q 568.1 164.35 578.2 162.65 578.55 162.6 578.9 162.6 595.85 161.65 607.7 163.25 617 164.45 623.1 167.25
L 621.6 120 556.3 120 552.2 177.95
Q 554.55 174 558.15 171 Z"/>

<path fill="#000000" stroke="none" d="
M 629.75 89
Q 621.386328125 76.40546875 608.4 73.25 594.05 74.75 582.65 69.5 566.2435546875 74.7123046875 555.8 89 549.933203125 97.038671875 545.95 107.95 540.916796875 121.7298828125 538.9 140.1 536.55 161 534.7 176.35
L 544.15 190.15 545.9 169.25 547.15 188.75 552.8 195.05 552.2 177.95 556.3 120 621.6 120 623.1 167.25 623.15 167.25 622.15 199.25 636.25 181.05 636.95 160.5 638.15 178.75 645.05 169.65
Q 645.55 148.65 642.8 128.5 642.6 127.4 642.45 126.3 641.9408203125 123.0525390625 641.3 120 637.4802734375 100.5388671875 629.75 89 Z"/>
</g>

<g id="Layer0_9_MEMBER_2_MEMBER_1_MEMBER_0_FILL">
<path fill="#AD5600" stroke="none" d="
M 706.6 -68.2
L 706.35 -52.5
Q 706.3 -50.3 708.25 -48.75 710.25 -47.15 713.1 -47.1 716 -47.05 718 -48.55 720.05 -50.1 720.1 -52.3
L 720.35 -68.6
Q 713.5 -62.5060546875 706.6 -68.2 Z"/>

<path fill="#803F00" stroke="none" d="
M 713.75 -86.45
Q 710.9 -86.5 708.9 -85.05 706.85 -83.45 706.85 -81.25
L 706.6 -68.2
Q 713.5 -62.5060546875 720.35 -68.6
L 720.6 -81.05
Q 720.6 -83.25 718.65 -84.85 716.65 -86.4 713.75 -86.45 Z"/>
</g>

<g id="Layer0_9_MEMBER_2_MEMBER_1_MEMBER_1_FILL">
<path fill="#000000" stroke="none" d="
M 550.8 126.3
Q 550.55 128.1 550.45 129.9 549.75 140.5 553.95 149.45
L 552.6 118.85
Q 551.35 122.4 550.8 126.3
M 593.3 92.25
Q 581.2 91.45 571.3 97.05 567.5 99.15 564.05 102.2 560.45 105.35 557.9 108.9 555.55 112.05 553.95 115.55
L 579.55 110.8 583.2 97.35 586.5 109.85 623.75 113 625.05 153.95
Q 630.25 145.65 630.95 135.1 631.05 133.45 631.05 131.85 630.95 120.4 624.9 110.95 623.2 108.4 621 105.9 617.35 101.75 613.1 98.85 604.45 93 593.3 92.25 Z"/>

<path fill="#AD5600" stroke="none" d="
M 553.95 115.55
Q 553.2 117.15 552.6 118.85
L 553.95 149.45
Q 555.45 152.65 557.6 155.65 558.85 157.45 560.35 159.15 571.35 171.7 588.05 172.8 604.7 173.9 617.3 162.85 619 161.35 620.5 159.75 623.05 157 625.05 153.95
L 623.75 113 586.5 109.85 583.2 97.35 579.55 110.8 553.95 115.55 Z"/>
</g>

<g id="Layer0_9_MEMBER_2_MEMBER_1_MEMBER_1_MEMBER_0_FILL">
<path fill="#000000" stroke="none" d="
M -169 -170
Q -173.55 -170 -176.8 -166.8 -180 -163.55 -180 -159 -180 -154.45 -176.8 -151.25 -173.55 -148 -169 -148 -164.45 -148 -161.25 -151.25 -158 -154.45 -158 -159 -158 -163.55 -161.25 -166.8 -164.45 -170 -169 -170 Z"/>
</g>

<g id="Layer0_9_MEMBER_2_MEMBER_1_MEMBER_1_MEMBER_1_FILL">
<path fill="#000000" stroke="none" d="
M -204 -104.5
Q -204 -109.25 -207.4 -112.65 -210.75 -116 -215.5 -116 -220.25 -116 -223.65 -112.65 -227 -109.25 -227 -104.5 -227 -99.75 -223.65 -96.4 -220.25 -93 -215.5 -93 -210.75 -93 -207.4 -96.4 -204 -99.75 -204 -104.5 Z"/>
</g>

<g id="Layer0_9_MEMBER_2_MEMBER_1_MEMBER_1_MEMBER_2_FILL">
<path fill="#AD5600" stroke="none" d="
M -169 -170
Q -173.55 -170 -176.8 -166.8 -180 -163.55 -180 -159 -180 -154.45 -176.8 -151.25 -173.55 -148 -169 -148 -164.45 -148 -161.25 -151.25 -158 -154.45 -158 -159 -158 -163.55 -161.25 -166.8 -164.45 -170 -169 -170 Z"/>
</g>

<g id="Layer0_9_MEMBER_2_MEMBER_1_MEMBER_1_MEMBER_3_FILL">
<path fill="#AD5600" stroke="none" d="
M -204 -104.5
Q -204 -109.25 -207.4 -112.65 -210.75 -116 -215.5 -116 -220.25 -116 -223.65 -112.65 -227 -109.25 -227 -104.5 -227 -99.75 -223.65 -96.4 -220.25 -93 -215.5 -93 -210.75 -93 -207.4 -96.4 -204 -99.75 -204 -104.5 Z"/>
</g>

<g id="Layer0_9_MEMBER_2_MEMBER_1_MEMBER_1_MEMBER_4_FILL">
<path fill="#FFFFFF" stroke="none" d="
M 720.3 -97.7
L 724 -97.65 731.5 -97.55
Q 731.68203125 -98.73359375 731.7 -100 715.3947265625 -101.98515625 697.7 -100 697.7162109375 -98.975 697.85 -97.95
L 708.9 -97.8 714.2 -97.75 715.85 -97.75 720.3 -97.7
M 714.7 -84
Q 719.1 -84 722.7 -85.85
L 707.3 -85.55
Q 710.65 -84 714.7 -84 Z"/>

<path fill="#CCCCCC" stroke="none" d="
M 731.7 -100
Q 731.7 -100.124609375 731.7 -100.25 731.7 -100.9 731.65 -101.5 714.7 -104.3671875 697.75 -101.5 697.7 -100.9 697.7 -100.25 697.7 -100.125 697.7 -100 715.3947265625 -101.98515625 731.7 -100 Z"/>

<path fill="#3C0000" stroke="none" d="
M 705.9 -86.3
L 708.05 -94.7 708.9 -97.8 697.85 -97.95
Q 698.55 -92.7 702.65 -88.75 704.15 -87.3 705.9 -86.3 Z"/>

<path fill="#990000" stroke="none" d="
M 724 -97.65
Q 727.548828125 -93.2064453125 725.75 -87.9 726.235546875 -88.298046875 726.7 -88.75 730.65 -92.5 731.5 -97.55
L 724 -97.65
M 715.85 -97.75
L 716.7 -91.5 720.3 -97.7 715.85 -97.75
M 714.2 -97.75
L 708.9 -97.8 708.05 -94.7 714.2 -97.75 Z"/>

<path fill="#CC0000" stroke="none" d="
M 724 -97.65
L 720.3 -97.7 716.7 -91.5 715.85 -97.75 714.2 -97.75 708.05 -94.7 705.9 -86.3
Q 706.55 -85.9 707.3 -85.55
L 722.7 -85.85
Q 724.31015625 -86.673828125 725.75 -87.9 727.548828125 -93.2064453125 724 -97.65 Z"/>
</g>

<g id="Layer0_9_MEMBER_2_MEMBER_1_MEMBER_1_MEMBER_4_MEMBER_0_FILL">
<path fill="#CC0000" stroke="none" d="
M 721.4 -96.2
Q 721.6 -95.2 722.05 -95.2 722.75 -95.2 722.8 -97.15 722.8 -99.2 722.05 -99.1 721.3 -98.95 721.3 -97.15 721.3 -96.7 721.4 -96.2 Z"/>
</g>

<g id="Layer0_9_MEMBER_2_MEMBER_1_MEMBER_1_MEMBER_4_MEMBER_1_FILL">
<path fill="#990000" stroke="none" d="
M 727.55 -95.7
Q 728.25 -95.7 728.3 -97.65 728.3 -99.7 727.55 -99.6 726.8 -99.45 726.8 -97.65 726.8 -97.2 726.9 -96.7 727.1 -95.7 727.55 -95.7 Z"/>
</g>

<g id="Layer0_9_MEMBER_2_MEMBER_1_MEMBER_1_MEMBER_4_MEMBER_2_FILL">
<path fill="#3C0000" stroke="none" d="
M 700.3 -94.45
Q 701 -94.45 701.05 -96.4 701.05 -98.45 700.3 -98.35 699.55 -98.2 699.55 -96.4 699.55 -95.95 699.65 -95.45 699.85 -94.45 700.3 -94.45 Z"/>
</g>

<g id="Layer0_9_MEMBER_2_MEMBER_1_MEMBER_1_MEMBER_4_MEMBER_3_FILL">
<path fill="#3C0000" stroke="none" d="
M 705.85 -95.7
Q 706 -96.3 706 -96.75 706 -98.6 705.25 -98.7 704.5 -98.85 704.5 -96.75 704.45 -96.3 704.55 -95.8 704.65 -94.8 705.2 -94.8 705.6 -94.8 705.85 -95.7 Z"/>
</g>

<g id="Layer0_9_MEMBER_2_MEMBER_1_MEMBER_1_MEMBER_5_FILL">
<path fill="#FF0066" fill-opacity="0.18823529411764706" stroke="none" d="
M 748.5 -112.05
Q 747.3 -113.25 745.6 -113.25
L 736.05 -113.25
Q 734.35 -113.25 733.15 -112.05 731.95 -110.85 731.95 -109.15
L 731.95 -109.1
Q 731.95 -107.4 733.15 -106.2 734.35 -105 736.05 -105
L 745.6 -105
Q 747.3 -105 748.5 -106.2 749.7 -107.4 749.7 -109.1
L 749.7 -109.15
Q 749.7 -110.85 748.5 -112.05 Z"/>
</g>

<g id="Layer0_9_MEMBER_2_MEMBER_1_MEMBER_1_MEMBER_6_FILL">
<path fill="#FF0066" fill-opacity="0.18823529411764706" stroke="none" d="
M 748.5 -112.05
Q 747.3 -113.25 745.6 -113.25
L 736.05 -113.25
Q 734.35 -113.25 733.15 -112.05 731.95 -110.85 731.95 -109.15
L 731.95 -109.1
Q 731.95 -107.4 733.15 -106.2 734.35 -105 736.05 -105
L 745.6 -105
Q 747.3 -105 748.5 -106.2 749.7 -107.4 749.7 -109.1
L 749.7 -109.15
Q 749.7 -110.85 748.5 -112.05 Z"/>
</g>

<g id="Layer0_9_MEMBER_3_FILL">
<path fill="#E5E5E5" stroke="none" d="
M 166.35 137.55
L 166.35 113.75
Q 166.35 85.85 147.35 66.15 128.45 46.45 101.55 46.45
L 87.1 46.45
Q 60.2 46.45 41.25 66.15 22.3 85.85 22.3 113.75
L 22.3 158.65
Q 22.3 186.5 41.25 206.25 60.2 225.95 87.1 225.95
L 101.55 225.95
Q 128.45 225.95 147.35 206.25 166.35 186.5 166.35 158.65
L 166.35 150.5 217.05 139.3 166.35 137.55 Z"/>
</g>

<g id="Layer0_9_MEMBER_4_MEMBER_0_MEMBER_0_FILL">
<path fill="#9C4E00" stroke="none" d="
M 625.85 -187.95
Q 622.8 -191 618.45 -191 614.1 -191 611 -187.95 607.95 -184.85 607.95 -180.5
L 607.95 -43.5
Q 607.95 -39.15 611 -36.1 614.1 -33 618.45 -33 622.8 -33 625.85 -36.1 628.95 -39.15 628.95 -43.5
L 628.95 -180.5
Q 628.95 -184.85 625.85 -187.95 Z"/>
</g>

<g id="Layer0_9_MEMBER_4_MEMBER_0_MEMBER_1_FILL">
<path fill="#9C4E00" stroke="none" d="
M 580.85 9.05
Q 577.8 6 573.45 6 569.1 6 566 9.05 562.95 12.15 562.95 16.5
L 562.95 124.45
Q 562.95 128.8 566 131.85 569.1 134.95 573.45 134.95 577.8 134.95 580.85 131.85 583.95 128.8 583.95 124.45
L 583.95 16.5
Q 583.95 12.15 580.85 9.05 Z"/>
</g>

<g id="Layer0_9_MEMBER_4_MEMBER_0_MEMBER_2_FILL">
<path fill="#FFCC00" stroke="none" d="
M 621.6 230.1
L 634.3 211.85
Q 615.6970703125 188.9916015625 604.9 187.6
L 598.25 208.95 621.6 230.1 Z"/>
</g>

<g id="Layer0_9_MEMBER_4_MEMBER_1_MEMBER_0_FILL">
<path fill="#9C4E00" stroke="none" d="
M 668.55 191.65
Q 673.6056640625 194.0037109375 683.3 193.25 693.0330078125 192.5388671875 696.45 190.65 699.8669921875 188.7611328125 698.9 185.7 697.9943359375 182.6962890625 692.95 180.35 687.9 178 680.75 178 673.6 178 668.55 180.35 663.5 182.7 663.5 186 663.5 189.3 668.55 191.65 Z"/>
</g>

<g id="Layer0_9_MEMBER_4_MEMBER_1_MEMBER_1_FILL">
<path fill="#9C4E00" stroke="none" d="
M 697.4 186.15
Q 698.45 181.85 698.45 175.75 698.45 169.65 697.4 165.3 696.4 161 694.95 161 693.5 161 692.45 165.3 691.45 169.65 691.45 175.75 691.45 181.85 692.45 186.15 693.5 190.5 694.95 190.5 696.4 190.5 697.4 186.15 Z"/>
</g>

<g id="Layer0_9_MEMBER_4_MEMBER_1_MEMBER_2_FILL">
<path fill="#9C4E00" stroke="none" d="
M 698.45 175.75
Q 698.45 169.65 697.4 165.3 696.4 161 694.95 161 693.5 161 692.45 165.3 691.45 169.65 691.45 175.75 691.45 181.85 692.45 186.15 693.5 190.5 694.95 190.5 696.4 190.5 697.4 186.15 698.45 181.85 698.45 175.75 Z"/>
</g>

<g id="Layer0_9_MEMBER_4_MEMBER_1_MEMBER_3_FILL">
<path fill="#9C4E00" stroke="none" d="
M 680.75 168.35
Q 677.0947265625 170.9 671.6 175.3 666.115234375 179.75 665 183.6 663.8845703125 187.5 665.15 188.45 666.405078125 189.45 670.1 186.95 673.85 184.5 678 180.1 682.2 175.65 684.35 171.75 686.6 167.9 685.55 166.95 684.45 165.95 680.75 168.35 Z"/>
</g>

<g id="Layer0_9_MEMBER_4_MEMBER_1_MEMBER_4_FILL">
<path fill="#9C4E00" stroke="none" d="
M 698.45 175.75
Q 698.45 169.65 697.4 165.3 696.4 161 694.95 161 693.5 161 692.45 165.3 691.45 169.65 691.45 175.75 691.45 181.85 692.45 186.15 693.5 190.5 694.95 190.5 696.4 190.5 697.4 186.15 698.45 181.85 698.45 175.75 Z"/>
</g>

<path id="Layer0_6_MEMBER_1_MEMBER_2_MEMBER_2_1_STROKES" stroke="#000000" stroke-width="1" stroke-linejoin="round" stroke-linecap="round" fill="none" d="
M 249.69353179931642 114.30971069335936
Q 248.15850830078125 137.94815063476562 230.36111907958983 153.55291137695312 212.58567962646487 169.18267059326172 188.9472396850586 167.64764709472655 165.30879974365234 166.11262359619138 149.6805648803711 148.31371002197267 134.07427978515625 130.539794921875 135.60930328369142 106.90135498046874 137.14432678222659 83.26291503906249 154.91976623535157 67.6331558227539 172.71715545654297 52.0283950805664 196.35559539794923 53.56341857910156 219.9940353393555 55.09844207763672 235.6003204345703 72.87235717773437 251.22855529785156 90.67127075195312 249.69353179931642 114.30971069335936 Z"/>

<path id="Layer0_6_MEMBER_1_MEMBER_2_MEMBER_4_1_STROKES" stroke="#000000" stroke-width="1" stroke-linejoin="round" stroke-linecap="round" fill="none" d="
M 218.33153076171874 131.84084777832032
Q 216.41158294677734 133.32999801635742 213.99761123657225 133.00592117309571 211.57890548706052 132.71930694580078 210.08975524902343 130.7993591308594 208.60060501098633 128.879411315918 208.90831756591797 126.44434127807618 209.21129608154297 124.04673385620119 211.13124389648436 122.55758361816407 213.05119171142576 121.06843338012698 215.4698974609375 121.35504760742188 217.88386917114258 121.67912445068362 219.37301940917968 123.59907226562501 220.86216964721677 125.51902008056642 220.55919113159177 127.91662750244141 220.25147857666013 130.35169754028323 218.33153076171874 131.84084777832032 Z"/>

<path id="Layer0_6_MEMBER_1_MEMBER_2_MEMBER_5_1_STROKES" stroke="#000000" stroke-width="1" stroke-linejoin="round" stroke-linecap="round" fill="none" d="
M 180.27920837402343 130.26746063232423
Q 178.27486724853514 131.82206802368165 175.74850769042968 131.4837890625 173.21741409301757 131.18297271728517 171.66280670166014 129.1786315917969 170.10819931030272 127.1742904663086 170.43011398315429 124.6268325805664 170.7472946166992 122.11683731079103 172.7516357421875 120.5622299194336 174.75597686767577 119.00762252807618 177.28707046508788 119.30843887329101 179.81343002319335 119.64671783447267 181.36803741455077 121.65105895996095 182.9226448059082 123.65540008544923 182.60546417236327 126.1653953552246 182.2835494995117 128.7128532409668 180.27920837402343 130.26746063232423 Z"/>

<path id="Layer0_9_MEMBER_2_MEMBER_1_MEMBER_1_MEMBER_0_1_STROKES" stroke="#000000" stroke-width="1" stroke-linejoin="round" stroke-linecap="round" fill="none" d="
M 624.4360626220703 130.9690734863281
Q 622.5518699645995 132.53730163574218 620.1065605163574 132.29437942504882 617.657778930664 132.089395904541 616.08955078125 130.2052032470703 614.5213226318359 128.3210105895996 614.7470115661621 125.85499572753905 614.969228363037 123.42691955566406 616.8534210205078 121.85869140624999 618.7376136779785 120.29046325683592 621.1863952636718 120.49544677734372 623.631704711914 120.73836898803711 625.1999328613281 122.6225616455078 626.7681610107421 124.5067543029785 626.5459442138672 126.9348304748535 626.320255279541 129.40084533691405 624.4360626220703 130.9690734863281 Z"/>

<path id="Layer0_9_MEMBER_2_MEMBER_1_MEMBER_1_MEMBER_1_1_STROKES" stroke="#000000" stroke-width="1" stroke-linejoin="round" stroke-linecap="round" fill="none" d="
M 586.012547302246 130.70436401367186
Q 584.0455329895019 132.34152526855468 581.486407470703 132.0881866455078 578.9238098144531 131.87278671264647 577.2866485595703 129.90577239990233 575.6494873046875 127.93875808715819 575.8855926513671 125.35892715454099 576.1182258605957 122.81703491210936 578.0852401733398 121.17987365722655 580.0522544860839 119.54271240234374 582.6148521423339 119.75811233520506 585.1739776611328 120.01145095825194 586.8111389160156 121.97846527099608 588.4483001708984 123.94547958374022 588.2156669616699 126.48737182617185 587.9795616149902 129.06720275878905 586.012547302246 130.70436401367186 Z"/>
</defs>

<g transform="matrix( 1, 0, 0, 1, 0,0) ">
<use xlink:href="#Layer0_0_FILL"/>
</g>

<g transform="matrix( 1, 0, 0, 1, 0,9) ">
<use xlink:href="#Layer0_1_FILL"/>
</g>

<g transform="matrix( 1, 0, 0, 1, 0,29) ">
<use xlink:href="#Layer0_2_FILL"/>
</g>

<g transform="matrix( 1, 0, 0, 1, 0,-11) ">
<use xlink:href="#Layer0_3_FILL"/>
</g>

<g transform="matrix( 1, 0, 0, 1, 0,49) ">
<use xlink:href="#Layer0_4_FILL"/>
</g>

<g transform="matrix( 1, 0, 0, 1, 0,0) ">
<use xlink:href="#Layer0_5_FILL"/>
</g>

<g transform="matrix( 0.7652587890625, 0, 0, 0.7652587890625, 0.15,42.55) ">
<use xlink:href="#Layer0_6_MEMBER_0_FILL"/>
</g>

<g transform="matrix( -0.3854827880859375, 0.3200531005859375, 0.3200531005859375, 0.3854827880859375, 361.85,-124.85) ">
<use xlink:href="#Layer0_6_MEMBER_0_MEMBER_0_FILL"/>
</g>

<g transform="matrix( -0.3854827880859375, 0.3200531005859375, 0.3200531005859375, 0.3854827880859375, 363.05,-125.45) ">
<use xlink:href="#Layer0_6_MEMBER_0_MEMBER_1_FILL"/>
</g>

<g transform="matrix( 0.3798675537109375, -0.5346527099609375, 0.4219512939453125, 0.299835205078125, 33.8,595.7) ">
<use xlink:href="#Layer0_6_MEMBER_1_MEMBER_0_MEMBER_0_FILL"/>
</g>

<g transform="matrix( -0.57537841796875, -0.2158355712890625, 0.078369140625, -0.56072998046875, 578.5,382.5) ">
<use xlink:href="#Layer0_6_MEMBER_1_MEMBER_0_MEMBER_1_FILL"/>
</g>

<g transform="matrix( 0.4765472412109375, 0.4508209228515625, -0.4508209228515625, 0.4765472412109375, 194.5,-41.45) ">
<use xlink:href="#Layer0_6_MEMBER_1_MEMBER_0_MEMBER_2_FILL"/>
</g>

<g transform="matrix( 0.6545257568359375, 0.0425567626953125, -0.0425567626953125, 0.6545257568359375, 13.6,11.55) ">
<use xlink:href="#Layer0_6_MEMBER_1_MEMBER_1_FILL"/>
</g>

<g transform="matrix( 0.515350341796875, 0.033477783203125, -0.033477783203125, 0.515350341796875, 69.55,45.5) ">
<use xlink:href="#Layer0_6_MEMBER_1_MEMBER_2_MEMBER_0_FILL"/>
</g>

<g transform="matrix( 0.6545257568359375, 0.0425567626953125, -0.032684326171875, 0.503662109375, -185.85,117.95) ">
<use xlink:href="#Layer0_6_MEMBER_1_MEMBER_2_MEMBER_1_FILL"/>
</g>

<g transform="matrix( 0.469482421875, 0.030487060546875, -0.030487060546875, 0.469482421875, 95.65,83.35) ">
<use xlink:href="#Layer0_6_MEMBER_1_MEMBER_2_MEMBER_2_FILL"/>

<use xlink:href="#Layer0_6_MEMBER_1_MEMBER_2_MEMBER_2_1_STROKES" transform="matrix( 2.1210479736328125, -0.137725830078125, 0.137725830078125, 2.1210479736328125, -214.4,-163.65) "/>
</g>

<g transform="matrix( 0.6545257568359375, 0.0425567626953125, -0.0425567626953125, 0.6545257568359375, 37.85,7.65) ">
<use xlink:href="#Layer0_6_MEMBER_1_MEMBER_2_MEMBER_3_FILL"/>
</g>

<g transform="matrix( 0.3272857666015625, 0.421966552734375, -0.421966552734375, 0.3272857666015625, 202.95,250.55) ">
<use xlink:href="#Layer0_6_MEMBER_1_MEMBER_2_MEMBER_4_FILL"/>

<use xlink:href="#Layer0_6_MEMBER_1_MEMBER_2_MEMBER_4_1_STROKES" transform="matrix( 1.147674560546875, -1.4796905517578125, 1.4796905517578125, 1.147674560546875, -603.65,12.75) "/>
</g>

<g transform="matrix( 0.3272857666015625, 0.421966552734375, -0.421966552734375, 0.3272857666015625, 202.95,250.55) ">
<use xlink:href="#Layer0_6_MEMBER_1_MEMBER_2_MEMBER_5_FILL"/>

<use xlink:href="#Layer0_6_MEMBER_1_MEMBER_2_MEMBER_5_1_STROKES" transform="matrix( 1.147674560546875, -1.4796905517578125, 1.4796905517578125, 1.147674560546875, -603.65,12.75) "/>
</g>

<g transform="matrix( 0.6545257568359375, 0.0425567626953125, -0.0425567626953125, 0.6545257568359375, 37.85,7.65) ">
<use xlink:href="#Layer0_6_MEMBER_1_MEMBER_2_MEMBER_6_FILL"/>
</g>

<g transform="matrix( 0.6545257568359375, 0.0425567626953125, -0.0425567626953125, 0.6545257568359375, 37.85,7.65) ">
<use xlink:href="#Layer0_6_MEMBER_1_MEMBER_2_MEMBER_7_FILL"/>
</g>

<g transform="matrix( 0.6545257568359375, 0.0425567626953125, -0.0425567626953125, 0.6545257568359375, 39.15,10.4) ">
<use xlink:href="#Layer0_6_MEMBER_1_MEMBER_2_MEMBER_8_FILL"/>
</g>

<g transform="matrix( 0.6545257568359375, 0.0425567626953125, -0.0425567626953125, 0.6545257568359375, 37.85,7.65) ">
<use xlink:href="#Layer0_6_MEMBER_1_MEMBER_2_MEMBER_9_FILL"/>
</g>

<g transform="matrix( 0.6545257568359375, 0.0425567626953125, -0.0425567626953125, 0.6545257568359375, 37.85,7.65) ">
<use xlink:href="#Layer0_6_MEMBER_1_MEMBER_2_MEMBER_10_FILL"/>
</g>

<g transform="matrix( 0.6551666259765625, -0.025482177734375, 0.0201416015625, 0.517242431640625, -237.8,321.8) ">
<use xlink:href="#Layer0_6_MEMBER_1_MEMBER_3_MEMBER_0_FILL"/>
</g>

<g transform="matrix( 0.5273284912109375, -0.3154449462890625, 0.3896026611328125, 0.4106292724609375, -141.95,457.9) ">
<use xlink:href="#Layer0_6_MEMBER_1_MEMBER_3_MEMBER_1_FILL"/>
</g>

<g transform="matrix( 0.6545257568359375, 0.0425567626953125, -0.0425567626953125, 0.6545257568359375, 43.55,10.4) ">
<use xlink:href="#Layer0_6_MEMBER_1_MEMBER_3_MEMBER_2_FILL"/>
</g>

<g transform="matrix( 0.6545257568359375, 0.0425567626953125, -0.0425567626953125, 0.6545257568359375, 43.55,9.15) ">
<use xlink:href="#Layer0_6_MEMBER_1_MEMBER_4_FILL"/>
</g>

<g transform="matrix( 0.6545257568359375, 0.0425567626953125, -0.0425567626953125, 0.6545257568359375, 6.95,7) ">
<use xlink:href="#Layer0_6_MEMBER_1_MEMBER_5_FILL"/>
</g>

<g transform="matrix( 0.7652587890625, 0, 0, 0.7652587890625, 0.15,42.55) ">
<use xlink:href="#Layer0_6_MEMBER_2_FILL"/>
</g>

<g transform="matrix( 1, 0, 0, 1, 40.45,0) ">
<use xlink:href="#Layer0_7_MEMBER_0_MEMBER_0_FILL"/>
</g>

<g transform="matrix( 1, 0, 0, 1, -1.5,0) ">
<use xlink:href="#Layer0_8_MEMBER_0_MEMBER_0_FILL"/>
</g>

<g transform="matrix( 1, 0, 0, 1, 12,0) ">
<use xlink:href="#Layer0_9_MEMBER_0_FILL"/>
</g>

<g transform="matrix( -0.352203369140625, -0.4957427978515625, -0.3912200927734375, 0.2779998779296875, 739.65,563.95) ">
<use xlink:href="#Layer0_9_MEMBER_1_MEMBER_0_MEMBER_0_FILL"/>
</g>

<g transform="matrix( 0.533477783203125, -0.2001190185546875, -0.0673980712890625, -0.4822540283203125, 234.55,367.2) ">
<use xlink:href="#Layer0_9_MEMBER_1_MEMBER_0_MEMBER_1_FILL"/>
</g>

<g transform="matrix( -1, 0, 0, 1, 1200.4,0) ">
<use xlink:href="#Layer0_9_MEMBER_1_MEMBER_0_MEMBER_2_FILL"/>
</g>

<g transform="matrix( -1, 0, 0, 1, 1200.4,0) ">
<use xlink:href="#Layer0_9_MEMBER_1_MEMBER_1_MEMBER_0_FILL"/>
</g>

<g transform="matrix( -1, 0, 0, 1, 1200.4,0) ">
<use xlink:href="#Layer0_9_MEMBER_1_MEMBER_1_MEMBER_1_FILL"/>
</g>

<g transform="matrix( -0.935150146484375, 0.354248046875, 0.354248046875, 0.935150146484375, 1088.1,-234.8) ">
<use xlink:href="#Layer0_9_MEMBER_1_MEMBER_1_MEMBER_2_FILL"/>
</g>

<g transform="matrix( -1, 0, 0, 1, 1200.4,0) ">
<use xlink:href="#Layer0_9_MEMBER_1_MEMBER_1_MEMBER_3_FILL"/>
</g>

<g transform="matrix( -0.857452392578125, 0.514556884765625, 0.514556884765625, 0.857452392578125, 1003.9,-329.55) ">
<use xlink:href="#Layer0_9_MEMBER_1_MEMBER_1_MEMBER_4_FILL"/>
</g>

<g transform="matrix( 1.061065673828125, -0.0366058349609375, 0.0366058349609375, 1.061065673828125, -29,13.25) ">
<use xlink:href="#Layer0_9_MEMBER_2_MEMBER_0_FILL"/>
</g>

<g transform="matrix( 1.00848388671875, -0.0347747802734375, 0.0347747802734375, 1.00848388671875, -113.3,272.2) ">
<use xlink:href="#Layer0_9_MEMBER_2_MEMBER_1_MEMBER_0_FILL"/>
</g>

<g transform="matrix( 1.00848388671875, -0.0347747802734375, 0.0347747802734375, 1.00848388671875, 2.3,21.05) ">
<use xlink:href="#Layer0_9_MEMBER_2_MEMBER_1_MEMBER_1_FILL"/>
</g>

<g transform="matrix( 0.34466552734375, 0.4141082763671875, -0.4141082763671875, 0.34466552734375, 613.05,251.2) ">
<use xlink:href="#Layer0_9_MEMBER_2_MEMBER_1_MEMBER_1_MEMBER_0_FILL"/>

<use xlink:href="#Layer0_9_MEMBER_2_MEMBER_1_MEMBER_1_MEMBER_0_1_STROKES" transform="matrix( 1.187347412109375, -1.42657470703125, 1.42657470703125, 1.187347412109375, -1086.25,576.3) "/>
</g>

<g transform="matrix( 0.34466552734375, 0.4141082763671875, -0.4141082763671875, 0.34466552734375, 613.05,251.2) ">
<use xlink:href="#Layer0_9_MEMBER_2_MEMBER_1_MEMBER_1_MEMBER_1_FILL"/>

<use xlink:href="#Layer0_9_MEMBER_2_MEMBER_1_MEMBER_1_MEMBER_1_1_STROKES" transform="matrix( 1.187347412109375, -1.42657470703125, 1.42657470703125, 1.187347412109375, -1086.25,576.3) "/>
</g>

<g transform="matrix( 0.34466552734375, 0.4141082763671875, -0.4141082763671875, 0.34466552734375, 613.2,254.85) ">
<use xlink:href="#Layer0_9_MEMBER_2_MEMBER_1_MEMBER_1_MEMBER_2_FILL"/>
</g>

<g transform="matrix( 0.34466552734375, 0.4141082763671875, -0.4141082763671875, 0.34466552734375, 613.2,254.85) ">
<use xlink:href="#Layer0_9_MEMBER_2_MEMBER_1_MEMBER_1_MEMBER_3_FILL"/>
</g>

<g transform="matrix( 1.00848388671875, -0.0347747802734375, 0.0347747802734375, 1.00848388671875, -114.85,272.15) ">
<use xlink:href="#Layer0_9_MEMBER_2_MEMBER_1_MEMBER_1_MEMBER_4_FILL"/>
</g>

<g transform="matrix( 1.00848388671875, -0.0347747802734375, 0.0347747802734375, 1.00848388671875, -114.85,272.15) ">
<use xlink:href="#Layer0_9_MEMBER_2_MEMBER_1_MEMBER_1_MEMBER_4_MEMBER_0_FILL"/>
</g>

<g transform="matrix( 1.00848388671875, -0.0347747802734375, 0.0347747802734375, 1.00848388671875, -114.85,272.15) ">
<use xlink:href="#Layer0_9_MEMBER_2_MEMBER_1_MEMBER_1_MEMBER_4_MEMBER_1_FILL"/>
</g>

<g transform="matrix( 1.00848388671875, -0.0347747802734375, 0.0347747802734375, 1.00848388671875, -114.85,272.15) ">
<use xlink:href="#Layer0_9_MEMBER_2_MEMBER_1_MEMBER_1_MEMBER_4_MEMBER_2_FILL"/>
</g>

<g transform="matrix( 1.00848388671875, -0.0347747802734375, 0.0347747802734375, 1.00848388671875, -114.85,272.15) ">
<use xlink:href="#Layer0_9_MEMBER_2_MEMBER_1_MEMBER_1_MEMBER_4_MEMBER_3_FILL"/>
</g>

<g transform="matrix( 1.00848388671875, -0.0347747802734375, 0.0347747802734375, 1.00848388671875, -113.3,272.2) ">
<use xlink:href="#Layer0_9_MEMBER_2_MEMBER_1_MEMBER_1_MEMBER_5_FILL"/>
</g>

<g transform="matrix( 1.00848388671875, -0.0347747802734375, 0.0347747802734375, 1.00848388671875, -167.55,272.5) ">
<use xlink:href="#Layer0_9_MEMBER_2_MEMBER_1_MEMBER_1_MEMBER_6_FILL"/>
</g>

<g transform="matrix( -0.76519775390625, -0.0094451904296875, 0.0094451904296875, -0.76519775390625, 797.75,208) ">
<use xlink:href="#Layer0_9_MEMBER_3_FILL"/>
</g>

<g transform="matrix( 0.352203369140625, -0.4957427978515625, 0.3912200927734375, 0.2779998779296875, 472.75,563.95) ">
<use xlink:href="#Layer0_9_MEMBER_4_MEMBER_0_MEMBER_0_FILL"/>
</g>

<g transform="matrix( -0.533477783203125, -0.2001190185546875, 0.0673980712890625, -0.4822540283203125, 977.85,367.2) ">
<use xlink:href="#Layer0_9_MEMBER_4_MEMBER_0_MEMBER_1_FILL"/>
</g>

<g transform="matrix( 1, 0, 0, 1, 12,0) ">
<use xlink:href="#Layer0_9_MEMBER_4_MEMBER_0_MEMBER_2_FILL"/>
</g>

<g transform="matrix( 1, 0, 0, 1, 12,0) ">
<use xlink:href="#Layer0_9_MEMBER_4_MEMBER_1_MEMBER_0_FILL"/>
</g>

<g transform="matrix( 1, 0, 0, 1, 12,0) ">
<use xlink:href="#Layer0_9_MEMBER_4_MEMBER_1_MEMBER_1_FILL"/>
</g>

<g transform="matrix( 0.935150146484375, 0.354248046875, -0.354248046875, 0.935150146484375, 124.3,-234.8) ">
<use xlink:href="#Layer0_9_MEMBER_4_MEMBER_1_MEMBER_2_FILL"/>
</g>

<g transform="matrix( 1, 0, 0, 1, 12,0) ">
<use xlink:href="#Layer0_9_MEMBER_4_MEMBER_1_MEMBER_3_FILL"/>
</g>

<g transform="matrix( 0.857452392578125, 0.514556884765625, -0.514556884765625, 0.857452392578125, 208.5,-329.55) ">
<use xlink:href="#Layer0_9_MEMBER_4_MEMBER_1_MEMBER_4_FILL"/>
</g>
</svg>
