<?xml version="1.0" encoding="utf-8"?>
<!-- Generator: Adobe Illustrator 16.0.0, SVG Export Plug-In . SVG Version: 6.00 Build 0)  -->
<!DOCTYPE svg PUBLIC "-//W3C//DTD SVG 1.1//EN" "http://www.w3.org/Graphics/SVG/1.1/DTD/svg11.dtd">
<svg version="1.1" id="Layer_1" xmlns="http://www.w3.org/2000/svg" xmlns:xlink="http://www.w3.org/1999/xlink" x="0px" y="0px"
	 width="611.135px" height="54.012px" viewBox="0 0 611.135 54.012" enable-background="new 0 0 611.135 54.012"
	 xml:space="preserve">
<g>
	<path fill-rule="evenodd" clip-rule="evenodd" fill="#FFFFFF" d="M0,14.003c2.896,0,5.792,0,8.687,0
		c0.08,0.522,0.16,1.043,0.241,1.566c-2.152,0.839-4.304,1.679-6.456,2.519c-0.044,0.483-0.088,0.967-0.132,1.45
		c3.75,0.528,7.5,1.056,11.25,1.583c0.026,0.322,0.053,0.645,0.08,0.967c-3.128,0.239-6.256,0.478-9.385,0.717
		c-0.011,0.709-0.023,1.419-0.034,2.128c8.23,0.568,16.464,1.097,24.688,1.753c0.985,0.079,2.083,0.652,2.838,1.323
		c1.514,1.343,2.827,2.911,4.578,4.761c-0.612,0.995-1.493,2.425-2.955,4.801c19.86,4.981,39.124,9.679,59.317,9.009
		c0.311,0.429,0.621,0.858,0.931,1.287c-1.42,0.467-2.84,0.935-4.26,1.402c0.262,0.569,0.524,1.139,0.787,1.709
		c1.897,0.677,3.79,1.92,5.694,1.941c14.833,0.162,29.688,0.569,44.5-0.03c19.903-0.805,39.756-2.932,59.661-3.621
		c42.938-1.487,85.893-2.605,128.848-3.522c39.47-0.842,78.953-1.086,118.423-1.879c13.807-0.278,27.852-0.029,41.324-2.523
		c14.245-2.637,28.265-1.887,42.439-1.951c-7.185-0.57-14.369-1.14-21.554-1.71c-0.005-0.332-0.009-0.663-0.013-0.994
		c18.483,0,36.967,0,55.45,0c0.012-0.076,0.024-0.151,0.036-0.227c-4.509-0.554-9.018-1.109-13.525-1.664
		c0.01-0.35,0.02-0.701,0.029-1.051c4.692,0,9.384,0,14.075,0c0.099-0.666,0.198-1.331,0.298-1.995
		c-8.55-1.969-17.1-3.937-26.286-6.052c4.471-5.426,10.755-1.016,14.454-2.854c-23.109-2.127-47.211-4.346-71.312-6.565
		c0.044-0.645,0.088-1.29,0.132-1.935c41.276,1.992,82.553,3.984,123.828,5.976c0.08-0.386,0.158-0.772,0.237-1.158
		c-1.2-0.283-2.39-0.752-3.601-0.82c-33.729-1.893-67.448-4.036-101.196-5.517c-30.438-1.335-60.911-1.898-91.366-2.873
		c-28.94-0.926-57.879-1.945-86.817-2.938c-0.408-0.014-0.81-0.233-1.228-1.152c13.408-1.21,26.873-0.78,40.293-1.549
		c-27.32,0-54.643,0.276-81.957-0.131c-11.428-0.17-22.824-2.391-34.253-2.592c-13.915-0.245-27.852,0.574-41.773,1.107
		c-4.977,0.19-9.931,1.246-14.901,1.303c-38.453,0.437-76.907,0.755-115.361,1.043C63.592,5.131,52.4,4.47,41.277,5.103
		C27.392,5.893,13.29,5.799,0,11.002C0,7.335,0,3.667,0,0c203.712,0,407.424,0,611.135,0c0,18.004,0,36.008,0,54.012
		c-203.711,0-407.423,0-611.135,0C0,40.676,0,27.34,0,14.003z"/>
</g>
</svg>
