<?xml version="1.0" encoding="utf-8"?>
<!-- Generator: Adobe Illustrator 16.0.0, SVG Export Plug-In . SVG Version: 6.00 Build 0)  -->
<!DOCTYPE svg PUBLIC "-//W3C//DTD SVG 1.1//EN" "http://www.w3.org/Graphics/SVG/1.1/DTD/svg11.dtd">
<svg version="1.1" id="Camada_1" xmlns="http://www.w3.org/2000/svg" xmlns:xlink="http://www.w3.org/1999/xlink" x="0px" y="0px"
	 width="102px" height="65px" viewBox="0 0 379 239" enable-background="new 0 0 379 239" xml:space="preserve">
<g>
	<g>
		<path fill-rule="evenodd" clip-rule="evenodd" fill="#846F5E" d="M373.3,1.6c1.1,0.5,2.167,1.133,3.2,1.9
			c0.167,0.267,0.333,0.533,0.5,0.8c4.733,8.667,0.483,18.15-12.75,28.45l-140.85,77.8c-0.5,0.1-0.967,0.233-1.4,0.4
			c-6.7,2.233-12.717,4.733-18.05,7.5c-21.833,11.233-32.684,26.816-32.55,46.75l-1.55,0.7c-0.1-22.8,11.267-39.9,34.1-51.3
			c4.466-2.267,9.4-4.3,14.8-6.1c0.433-0.167,0.883-0.317,1.35-0.45L360.95,30.3c10.533-8.167,15.383-15.683,14.55-22.55
			C375.233,5.683,374.5,3.633,373.3,1.6z"/>
		<path fill-rule="evenodd" clip-rule="evenodd" fill="#C6B178" d="M127.8,113l-0.9-1.5l-0.5-2.35l7.5-4.5
			c4.867,1.833,9.567,3.25,14.1,4.25c10.567,2.267,20.317,2.267,29.25,0c11-2.833,20.667-9.4,29-19.7l144.1-84.25
			c9-5.167,16.65-6.284,22.95-3.35c1.2,2.033,1.934,4.083,2.2,6.15c-6.7-4.367-15.083-3.667-25.15,2.1l-143.8,84.1
			c-5.4,6.7-11.083,11.683-17.05,14.95c-15.633,8.533-34.217,8.667-55.75,0.4L127.8,113z"/>
		<path fill-rule="evenodd" clip-rule="evenodd" fill="#BB9147" d="M169.85,165.9l-6.85,3.85L127.8,113l5.95-3.7
			c21.533,8.267,40.117,8.133,55.75-0.4c5.967-3.267,11.65-8.25,17.05-14.95l143.8-84.1c10.066-5.767,18.45-6.467,25.15-2.1
			c0.833,6.867-4.017,14.383-14.55,22.55L220.1,108.05c-0.467,0.133-0.917,0.284-1.35,0.45c-5.4,1.8-10.333,3.833-14.8,6.1
			C181.117,126,169.75,143.1,169.85,165.9z M350.9,28.1c-0.033-0.434-0.133-0.85-0.3-1.25c-0.5-1.067-1.483-1.75-2.95-2.05
			c-1.367-0.267-2.816-0.05-4.35,0.65c-1.066,0.5-1.95,1.167-2.65,2c-0.3,0.267-0.55,0.583-0.75,0.95
			c-0.667,1.267-0.75,2.45-0.25,3.55c0.5,1.066,1.45,1.733,2.85,2c1.434,0.3,2.9,0.083,4.4-0.65c1.534-0.7,2.65-1.667,3.35-2.9
			C350.684,29.567,350.9,28.8,350.9,28.1z"/>
		<path fill-rule="evenodd" clip-rule="evenodd" fill="#542F12" d="M340.65,27.45c0.034,0.433,0.133,0.833,0.3,1.2
			c0.5,1.1,1.45,1.783,2.85,2.05c1.434,0.267,2.917,0.05,4.45-0.65c1.067-0.5,1.95-1.15,2.65-1.95c0,0.7-0.216,1.467-0.65,2.3
			c-0.7,1.233-1.816,2.2-3.35,2.9c-1.5,0.733-2.966,0.95-4.4,0.65c-1.4-0.267-2.35-0.934-2.85-2c-0.5-1.1-0.417-2.284,0.25-3.55
			C340.1,28.033,340.35,27.717,340.65,27.45z"/>
		<polygon fill-rule="evenodd" clip-rule="evenodd" fill="#736950" points="127.2,113.3 127.8,113 163,169.75 136.15,186.25 
			133.25,183.5 93.05,143.85 90.2,135.7 115.4,120.5 126.8,142 121.2,147.6 115.15,143.85 108.6,151.2 120.75,164.85 124.95,164.55 
			121.65,156.1 131.45,156.1 148.55,174.9 153.45,170.8 121.65,116.65 		"/>
		<polygon fill-rule="evenodd" clip-rule="evenodd" fill="#A1938B" points="121.65,116.65 115.4,120.5 90.2,135.7 86.05,138.2 
			85.7,133.15 126.4,109.15 126.9,111.5 127.2,113.3 		"/>
		<polygon fill-rule="evenodd" clip-rule="evenodd" fill="#777163" points="85.7,133.15 86.05,138.2 80.4,141.65 80.1,136.5 		"/>
		<polygon fill-rule="evenodd" clip-rule="evenodd" fill="#80756F" points="80.1,136.5 80.4,141.65 74.3,145.35 74.3,139.85 		"/>
		<polygon fill-rule="evenodd" clip-rule="evenodd" fill="#98887B" points="136.15,186.25 119.4,195.5 117.35,193.35 122.5,187.15 
			80.8,147.15 80.4,141.65 86.05,138.2 86.05,144.7 127.65,186.6 133.25,183.5 		"/>
		<polygon fill-rule="evenodd" clip-rule="evenodd" fill="#DBCEC8" points="80.4,141.65 80.8,147.15 122.5,187.15 117.35,193.35 
			74.3,147.95 74.3,145.35 		"/>
		<polygon fill-rule="evenodd" clip-rule="evenodd" fill="#161511" points="119.4,195.5 85.55,217.65 48.15,165.1 48.15,161.1 
			74.3,145.35 74.3,147.95 117.35,193.35 		"/>
		<polygon fill-rule="evenodd" clip-rule="evenodd" fill="#151314" points="74.3,145.35 48.15,161.1 48.15,155.3 74.3,139.85 		"/>
		<polygon fill-rule="evenodd" clip-rule="evenodd" fill="#B2A592" points="115.4,120.5 121.65,116.65 153.45,170.8 148.55,174.9 
			131.45,156.1 121.65,156.1 124.95,164.55 120.75,164.85 108.6,151.2 115.15,143.85 121.2,147.6 126.8,142 		"/>
		<polygon fill-rule="evenodd" clip-rule="evenodd" fill="#E4CABD" points="86.05,138.2 90.2,135.7 93.05,143.85 133.25,183.5 
			127.65,186.6 86.05,144.7 		"/>
		<polygon fill-rule="evenodd" clip-rule="evenodd" fill="#000000" points="48.15,161.1 0.2,188.7 0,184.2 48.15,155.3 		"/>
		<polygon id="corPonta" fill-rule="evenodd" clip-rule="evenodd" fill="#27DDF5" points="0.2,188.7 48.15,161.1 48.15,165.1 85.55,217.65 
			46.9,239.35 		"/>
	</g>
</g>
</svg>
