
<svg xmlns="http://www.w3.org/2000/svg" version="1.1" xmlns:xlink="http://www.w3.org/1999/xlink" preserveAspectRatio="none" x="0px" y="0px" width="202px" height="212px" viewBox="0 0 202 212">
<defs>
<g id="gr_01_0_Layer0_0_FILL">
<path fill="#CDD8DE" stroke="none" d="
M 49.6 40.1
L 62.35 40.15
Q 66.3 40.25 67.9 36.5 69.45 32.75 66.6 29.9
L 38.45 1.75
Q 36.7 0 34.2 0 31.7 0 29.95 1.75
L 1.8 29.9
Q -1 32.7 0.5 36.5 2.05 40.25 6.05 40.15
L 18.8 40.1 18.8 70
Q 18.8 72.45 20.55 74.2 22.3 75.95 24.8 75.95
L 43.6 75.95
Q 46.1 75.95 47.85 74.2 49.6 72.45 49.6 70
L 49.6 40.1
M 62.35 34.15
L 43.6 34.1 43.6 70 24.8 70 24.8 34.1 6 34.15 34.2 6 62.35 34.15 Z"/>

<path fill="#FF9933" stroke="none" d="
M 43.6 34.1
L 62.35 34.15 34.2 6 6 34.15 24.8 34.1 24.8 70 43.6 70 43.6 34.1 Z"/>
</g>

<path id="gr_01_0_Layer0_0_1_STROKES" stroke="#B66D24" stroke-width="1" stroke-linejoin="round" stroke-linecap="round" fill="none" d="
M 43.6 34.1
L 43.6 70 24.8 70 24.8 34.1 6 34.15 34.2 6 62.35 34.15 43.6 34.1 Z"/>
</defs>

<g id="seta_01" transform="matrix( 0.7071075439453125, -0.7071075439453125, 0.7071075439453125, 0.7071075439453125, 0,48.4) ">
<g transform="matrix( 1, 0, 0, 1, 0,0) ">
<g transform="matrix( 1, 0, 0, 1, 0,0) ">
<use xlink:href="#gr_01_0_Layer0_0_FILL"/>

<use xlink:href="#gr_01_0_Layer0_0_1_STROKES"/>
</g>
</g>
</g>

<g id="seta_01_FL" transform="matrix( 0.7071075439453125, 0.7071075439453125, -0.7071075439453125, 0.7071075439453125, 152.9,0) ">
<g transform="matrix( 1, 0, 0, 1, 0,0) ">
<g transform="matrix( 1, 0, 0, 1, 0,0) ">
<use xlink:href="#gr_01_0_Layer0_0_FILL"/>

<use xlink:href="#gr_01_0_Layer0_0_1_STROKES"/>
</g>
</g>
</g>

<g id="seta_01_FL_FL" transform="matrix( -0.7071075439453125, 0.7071075439453125, -0.7071075439453125, -0.7071075439453125, 201.4,163.4) ">
<g transform="matrix( 1, 0, 0, 1, 0,0) ">
<g transform="matrix( 1, 0, 0, 1, 0,0) ">
<use xlink:href="#gr_01_0_Layer0_0_FILL"/>

<use xlink:href="#gr_01_0_Layer0_0_1_STROKES"/>
</g>
</g>
</g>

<g id="seta_01_FL_FL_FL" transform="matrix( -0.7071075439453125, -0.7071075439453125, 0.7071075439453125, -0.7071075439453125, 48.5,211.8) ">
<g transform="matrix( 1, 0, 0, 1, 0,0) ">
<g transform="matrix( 1, 0, 0, 1, 0,0) ">
<use xlink:href="#gr_01_0_Layer0_0_FILL"/>

<use xlink:href="#gr_01_0_Layer0_0_1_STROKES"/>
</g>
</g>
</g>
</svg>
